<?xml version="1.0" encoding="utf-8"?>
<!-- Generator: Adobe Illustrator 27.2.0, SVG Export Plug-In . SVG Version: 6.00 Build 0)  -->
<svg version="1.2" baseProfile="tiny" id="g-production2-large-interaction-img" xmlns="http://www.w3.org/2000/svg" xmlns:xlink="http://www.w3.org/1999/xlink"
	 x="0px" y="0px" viewBox="0 0 1009.5 730" overflow="visible" xml:space="preserve">
<g>
	
		<path id="aus-path_00000019643159827371788250000007306793798662441379_" fill="none" stroke="#FF6989" stroke-width="2.5" stroke-linecap="round" d="
		M38.814,608.407c42.593,0,42.593-4.954,85.187-4.954s42.593,12.882,85.187,12.882s42.593-11.395,85.187-11.395
		s42.593,2.477,85.187,2.477s42.593-10.404,85.187-10.404c42.593,0,42.593-36.167,85.187-36.167s42.593-176.873,85.187-176.873
		s42.593,59.453,85.187,59.453c42.593,0,42.593,24.772,85.187,24.772c42.593,0,42.593-76.298,85.187-76.298
		s42.593-27.745,85.187-27.745"/>
	
		<path id="us-path_00000000198512383975598220000005788045829364337565_" fill="none" stroke="#00E7FF" stroke-width="2.5" stroke-linecap="round" d="
		M38.814,663.401c42.593,0,42.593,1.486,85.187,1.486s42.593,0,85.187,0s42.593,0,85.187,0s42.593,0,85.187,0
		s42.593-0.495,85.187-0.495c42.593,0,42.593-1.982,85.187-1.982s42.593-1.982,85.187-1.982s42.593,1.486,85.187,1.486
		c42.593,0,42.593,2.973,85.187,2.973c42.593,0,42.593-2.973,85.187-2.973s42.593,1.486,85.187,1.486"/>
	
		<path id="total-path_00000059268672270437349340000013725216886407248561_" fill="none" stroke="#E7FF00" stroke-width="2.5" stroke-linecap="round" d="
		M38.814,502.382c42.593,0,42.593-8.423,85.187-8.423s42.593,21.799,85.187,21.799s42.593-2.973,85.187-2.973
		s42.593,7.432,85.187,7.432s42.593-43.103,85.187-43.103c42.593,0,42.593-62.921,85.187-62.921s42.593-219.481,85.187-219.481
		s42.593,41.122,85.187,41.122c42.593,0,42.593,14.863,85.187,14.863c42.593,0,42.593-109.493,85.187-109.493
		s42.593-115.933,85.187-115.933"/>
</g>
<style>
#g-production2-large-interaction-img rect, #g-production2-large-interaction-img circle, #g-production2-large-interaction-img path, #g-production2-large-interaction-img line, #g-production2-large-interaction-img polyline, #g-production2-large-interaction-img polygon { vector-effect: non-scaling-stroke; }
</style>
</svg>

