<?xml version="1.0" encoding="utf-8"?>
<!-- Generator: Adobe Illustrator 27.2.0, SVG Export Plug-In . SVG Version: 6.00 Build 0)  -->
<svg version="1.2" baseProfile="tiny" id="g-reserve-mobile-interaction-img" xmlns="http://www.w3.org/2000/svg" xmlns:xlink="http://www.w3.org/1999/xlink"
	 x="0px" y="0px" viewBox="0 0 390 703" overflow="visible" xml:space="preserve">
<g>
	<g id="americas_00000129905178725354669370000003980097769607308205_">
		<rect x="-1164.204" y="42.86" fill="#FFC112" width="886.343" height="25.686"/>
		<rect x="-1164.204" y="104.505" fill="#FFC112" width="487.495" height="25.686"/>
		<rect x="-1164.204" y="289.442" fill="#FFC112" width="75.342" height="25.686"/>
		<rect x="-1164.204" y="412.733" fill="#FFC112" width="39.019" height="25.686"/>
		<rect x="-1164.204" y="474.378" fill="#FFC112" width="32.355" height="25.686"/>
		<text transform="matrix(1 0 0 1 -1158.8662 30.5859)" fill="#4F4F4F" font-family="'Roboto-Regular'" font-size="15px">21M</text>
		<text transform="matrix(1 0 0 1 -1158.8662 61.4082)" fill="#4F4F4F" font-family="'Roboto-Regular'" font-size="15px">20</text>
		<text transform="matrix(1 0 0 1 -1158.8662 92.2305)" fill="#4F4F4F" font-family="'Roboto-Regular'" font-size="15px">12</text>
		<text transform="matrix(1 0 0 1 -1158.8662 123.0547)" fill="#4F4F4F" font-family="'Roboto-Regular'" font-size="15px">11</text>
		
			<rect id="bolivia_00000147187674373212441520000006906369975356035744_" x="-1164.204" y="12.037" fill="#FFC112" width="930.645" height="25.686"/>
		
			<rect id="bolivia_00000046333066293750689910000002523906700390672818_" x="84.915" y="23.037" fill="#FFC112" width="284.585" height="25.686"/>
		<text transform="matrix(1 0 0 1 -1158.8662 309.2754)" fill="#4F4F4F" font-family="'Roboto-Regular'" font-size="15px">1.7</text>
		<rect x="84.915" y="53.86" fill="#FFC112" width="271.038" height="25.686"/>
		<rect x="84.915" y="84.682" fill="#FFC112" width="162.62" height="25.686"/>
		<rect x="84.915" y="115.505" fill="#FFC112" width="149.073" height="25.686"/>
		
			<rect id="bolivia_00000171714950822887830350000005222816288660755348_" x="-1164.204" y="73.682" fill="#FFC112" width="531.797" height="25.686"/>
		<rect x="84.915" y="300.442" fill="#FFC112" width="23.039" height="25.686"/>
		<rect x="84.915" y="423.733" fill="#FFC112" width="11.932" height="25.686"/>
		<rect x="84.915" y="485.378" fill="#FFC112" width="9.894" height="25.686"/>
		<g>
			<path fill="none" stroke="#FFFFFF" stroke-miterlimit="10" d="M-577.945,96.489c7.763,7.416,39.387,39.301,40.34,88.038
				c0.362,18.529-3.816,34.006-8.095,45.054"/>
			<g>
				<polygon fill="#FFFFFF" points="-549.807,226.313 -548.483,236.196 -540.585,230.109 				"/>
			</g>
		</g>
		<g>
			<text transform="matrix(1 0 0 1 -673.7053 260.5908)" fill="#FFC112" font-family="'Roboto-Regular'" font-size="17px">C</text>
			<text transform="matrix(1 0 0 1 -662.6399 260.5908)" fill="#FFC112" font-family="'Roboto-Regular'" font-size="17px">l</text>
			<text transform="matrix(1 0 0 1 -658.5149 260.5908)" fill="#FFC112" font-family="'Roboto-Regular'" font-size="17px">o</text>
			<text transform="matrix(1 0 0 1 -648.8196 260.5908)" fill="#FFC112" font-family="'Roboto-Regular'" font-size="17px">s</text>
			<text transform="matrix(1 0 0 1 -640.054 260.5908)" fill="#FFC112" font-family="'Roboto-Regular'" font-size="17px">e</text>
			<text transform="matrix(1 0 0 1 -631.0481 260.5908)" fill="#FFC112" font-family="'Roboto-Regular'" font-size="17px"> </text>
			<text transform="matrix(1 0 0 1 -626.8391 260.5908)" fill="#FFC112" font-family="'Roboto-Regular'" font-size="17px">t</text>
			<text transform="matrix(1 0 0 1 -621.4524 260.5908)" fill="#FFC112" font-family="'Roboto-Regular'" font-size="17px">o</text>
			<text transform="matrix(1 0 0 1 -611.7571 260.5908)" fill="#FFC112" font-family="'Roboto-Regular'" font-size="17px"> </text>
			<text transform="matrix(1 0 0 1 -607.5481 260.5908)" fill="#FFC112" font-family="'Roboto-Regular'" font-size="17px">7</text>
			<text transform="matrix(1 0 0 1 -598.0022 260.5908)" fill="#FFC112" font-family="'Roboto-Regular'" font-size="17px">0</text>
			<text transform="matrix(1 0 0 1 -588.4563 260.5908)" fill="#FFC112" font-family="'Roboto-Regular'" font-size="17px"> </text>
			<text transform="matrix(1 0 0 1 -584.2473 260.5908)" fill="#FFC112" font-family="'Roboto-Regular'" font-size="17px">p</text>
			<text transform="matrix(1 0 0 1 -574.7102 260.5908)" fill="#FFC112" font-family="'Roboto-Regular'" font-size="17px">e</text>
			<text transform="matrix(1 0 0 1 -565.7043 260.5908)" fill="#FFC112" font-family="'Roboto-Regular'" font-size="17px">r</text>
			<text transform="matrix(1 0 0 1 -560.1086 260.5908)" fill="#FFC112" font-family="'Roboto-Regular'" font-size="17px">c</text>
			<text transform="matrix(1 0 0 1 -551.2102 260.5908)" fill="#FFC112" font-family="'Roboto-Regular'" font-size="17px">e</text>
			<text transform="matrix(1 0 0 1 -542.2043 260.5908)" fill="#FFC112" font-family="'Roboto-Regular'" font-size="17px">n</text>
			<text transform="matrix(1 0 0 1 -532.8245 260.5908)" fill="#FFC112" font-family="'Roboto-Regular'" font-size="17px">t</text>
			<text transform="matrix(1 0 0 1 -527.2708 260.5908)" fill="#FFC112" font-family="'Roboto-Regular'" font-size="17px"> </text>
			<text transform="matrix(1 0 0 1 -523.0627 260.5908)" fill="#FFC112" font-family="'Roboto-Regular'" font-size="17px">o</text>
			<text transform="matrix(1 0 0 1 -513.3674 260.5908)" fill="#FFC112" font-family="'Roboto-Regular'" font-size="17px">f</text>
			<text transform="matrix(1 0 0 1 -696.6946 279.8555)" fill="#FFC112" font-family="'Roboto-Regular'" font-size="17px">r</text>
			<text transform="matrix(1 0 0 1 -690.9426 279.8555)" fill="#FFC112" font-family="'Roboto-Regular'" font-size="17px">e</text>
			<text transform="matrix(1 0 0 1 -681.9358 279.8555)" fill="#FFC112" font-family="'Roboto-Regular'" font-size="17px">s</text>
			<text transform="matrix(1 0 0 1 -673.1702 279.8555)" fill="#FFC112" font-family="'Roboto-Regular'" font-size="17px">e</text>
			<text transform="matrix(1 0 0 1 -664.1633 279.8555)" fill="#FFC112" font-family="'Roboto-Regular'" font-size="17px">r</text>
			<text transform="matrix(1 0 0 1 -658.262 279.8555)" fill="#FFC112" font-family="'Roboto-Regular'" font-size="17px">v</text>
			<text transform="matrix(1 0 0 1 -650.0276 279.8555)" fill="#FFC112" font-family="'Roboto-Regular'" font-size="17px">e</text>
			<text transform="matrix(1 0 0 1 -641.0208 279.8555)" fill="#FFC112" font-family="'Roboto-Regular'" font-size="17px"> </text>
			<text transform="matrix(1 0 0 1 -636.8127 279.8555)" fill="#FFC112" font-family="'Roboto-Regular'" font-size="17px">l</text>
			<text transform="matrix(1 0 0 1 -632.6868 279.8555)" fill="#FFC112" font-family="'Roboto-Regular'" font-size="17px">i</text>
			<text transform="matrix(1 0 0 1 -628.5618 279.8555)" fill="#FFC112" font-family="'Roboto-Regular'" font-size="17px">e</text>
			<text transform="matrix(1 0 0 1 -619.5559 279.8555)" fill="#FFC112" font-family="'Roboto-Regular'" font-size="17px">s</text>
			<text transform="matrix(1 0 0 1 -610.7903 279.8555)" fill="#FFC112" font-family="'Roboto-Regular'" font-size="17px"> </text>
			<text transform="matrix(1 0 0 1 -606.5813 279.8555)" fill="#FFC112" font-family="'Roboto-Regular'" font-size="17px">i</text>
			<text transform="matrix(1 0 0 1 -602.4563 279.8555)" fill="#FFC112" font-family="'Roboto-Regular'" font-size="17px">n</text>
			<text transform="matrix(1 0 0 1 -593.0754 279.8555)" fill="#FFC112" font-family="'Roboto-Regular'" font-size="17px"> </text>
			<text transform="matrix(1 0 0 1 -588.8674 279.8555)" fill="#FFC112" font-family="'Roboto-Regular'" font-size="17px">t</text>
			<text transform="matrix(1 0 0 1 -583.3137 279.8555)" fill="#FFC112" font-family="'Roboto-Regular'" font-size="17px">h</text>
			<text transform="matrix(1 0 0 1 -573.9504 279.8555)" fill="#FFC112" font-family="'Roboto-Regular'" font-size="17px">e</text>
			<text transform="matrix(1 0 0 1 -564.9446 279.8555)" fill="#FFC112" font-family="'Roboto-Regular'" font-size="17px"> </text>
			<text transform="matrix(1 0 0 1 -560.7356 279.8555)" fill="#FFC112" font-family="'Roboto-Regular'" font-size="17px">A</text>
			<text transform="matrix(1 0 0 1 -549.6458 279.8555)" fill="#FFC112" font-family="'Roboto-Regular'" font-size="17px">m</text>
			<text transform="matrix(1 0 0 1 -534.7463 279.8555)" fill="#FFC112" font-family="'Roboto-Regular'" font-size="17px">e</text>
			<text transform="matrix(1 0 0 1 -525.7395 279.8555)" fill="#FFC112" font-family="'Roboto-Regular'" font-size="17px">r</text>
			<text transform="matrix(1 0 0 1 -519.9875 279.8555)" fill="#FFC112" font-family="'Roboto-Regular'" font-size="17px">i</text>
			<text transform="matrix(1 0 0 1 -515.8625 279.8555)" fill="#FFC112" font-family="'Roboto-Regular'" font-size="17px">c</text>
			<text transform="matrix(1 0 0 1 -506.9641 279.8555)" fill="#FFC112" font-family="'Roboto-Regular'" font-size="17px">a</text>
			<text transform="matrix(1 0 0 1 -497.7161 279.8555)" fill="#FFC112" font-family="'Roboto-Regular'" font-size="17px">s</text>
			<text transform="matrix(1 0 0 1 -488.9504 279.8555)" fill="#FFC112" font-family="'Roboto-Regular'" font-size="17px">.</text>
			<text transform="matrix(1 0 0 1 -673.7053 260.5908)" fill="#FFFFFF" font-family="'Roboto-Regular'" font-size="17px">C</text>
			<text transform="matrix(1 0 0 1 -662.6399 260.5908)" fill="#FFFFFF" font-family="'Roboto-Regular'" font-size="17px">l</text>
			<text transform="matrix(1 0 0 1 -658.5149 260.5908)" fill="#FFFFFF" font-family="'Roboto-Regular'" font-size="17px">o</text>
			<text transform="matrix(1 0 0 1 -648.8196 260.5908)" fill="#FFFFFF" font-family="'Roboto-Regular'" font-size="17px">s</text>
			<text transform="matrix(1 0 0 1 -640.054 260.5908)" fill="#FFFFFF" font-family="'Roboto-Regular'" font-size="17px">e</text>
			<text transform="matrix(1 0 0 1 -631.0481 260.5908)" fill="#FFFFFF" font-family="'Roboto-Regular'" font-size="17px"> </text>
			<text transform="matrix(1 0 0 1 -626.8391 260.5908)" fill="#FFFFFF" font-family="'Roboto-Regular'" font-size="17px">t</text>
			<text transform="matrix(1 0 0 1 -621.4524 260.5908)" fill="#FFFFFF" font-family="'Roboto-Regular'" font-size="17px">o</text>
			<text transform="matrix(1 0 0 1 -611.7571 260.5908)" fill="#FFFFFF" font-family="'Roboto-Regular'" font-size="17px"> </text>
			<text transform="matrix(1 0 0 1 -607.5481 260.5908)" fill="#FFFFFF" font-family="'Roboto-Regular'" font-size="17px">7</text>
			<text transform="matrix(1 0 0 1 -598.0022 260.5908)" fill="#FFFFFF" font-family="'Roboto-Regular'" font-size="17px">0</text>
			<text transform="matrix(1 0 0 1 -588.4563 260.5908)" fill="#FFFFFF" font-family="'Roboto-Regular'" font-size="17px"> </text>
			<text transform="matrix(1 0 0 1 -584.2473 260.5908)" fill="#FFFFFF" font-family="'Roboto-Regular'" font-size="17px">p</text>
			<text transform="matrix(1 0 0 1 -574.7102 260.5908)" fill="#FFFFFF" font-family="'Roboto-Regular'" font-size="17px">e</text>
			<text transform="matrix(1 0 0 1 -565.7043 260.5908)" fill="#FFFFFF" font-family="'Roboto-Regular'" font-size="17px">r</text>
			<text transform="matrix(1 0 0 1 -560.1086 260.5908)" fill="#FFFFFF" font-family="'Roboto-Regular'" font-size="17px">c</text>
			<text transform="matrix(1 0 0 1 -551.2102 260.5908)" fill="#FFFFFF" font-family="'Roboto-Regular'" font-size="17px">e</text>
			<text transform="matrix(1 0 0 1 -542.2043 260.5908)" fill="#FFFFFF" font-family="'Roboto-Regular'" font-size="17px">n</text>
			<text transform="matrix(1 0 0 1 -532.8245 260.5908)" fill="#FFFFFF" font-family="'Roboto-Regular'" font-size="17px">t</text>
			<text transform="matrix(1 0 0 1 -527.2708 260.5908)" fill="#FFFFFF" font-family="'Roboto-Regular'" font-size="17px"> </text>
			<text transform="matrix(1 0 0 1 -523.0627 260.5908)" fill="#FFFFFF" font-family="'Roboto-Regular'" font-size="17px">o</text>
			<text transform="matrix(1 0 0 1 -513.3674 260.5908)" fill="#FFFFFF" font-family="'Roboto-Regular'" font-size="17px">f</text>
			<text transform="matrix(1 0 0 1 -696.6946 279.8555)" fill="#FFFFFF" font-family="'Roboto-Regular'" font-size="17px">r</text>
			<text transform="matrix(1 0 0 1 -690.9426 279.8555)" fill="#FFFFFF" font-family="'Roboto-Regular'" font-size="17px">e</text>
			<text transform="matrix(1 0 0 1 -681.9358 279.8555)" fill="#FFFFFF" font-family="'Roboto-Regular'" font-size="17px">s</text>
			<text transform="matrix(1 0 0 1 -673.1702 279.8555)" fill="#FFFFFF" font-family="'Roboto-Regular'" font-size="17px">e</text>
			<text transform="matrix(1 0 0 1 -664.1633 279.8555)" fill="#FFFFFF" font-family="'Roboto-Regular'" font-size="17px">r</text>
			<text transform="matrix(1 0 0 1 -658.262 279.8555)" fill="#FFFFFF" font-family="'Roboto-Regular'" font-size="17px">v</text>
			<text transform="matrix(1 0 0 1 -650.0276 279.8555)" fill="#FFFFFF" font-family="'Roboto-Regular'" font-size="17px">e</text>
			<text transform="matrix(1 0 0 1 -641.0208 279.8555)" fill="#FFFFFF" font-family="'Roboto-Regular'" font-size="17px"> </text>
			<text transform="matrix(1 0 0 1 -636.8127 279.8555)" fill="#FFFFFF" font-family="'Roboto-Regular'" font-size="17px">l</text>
			<text transform="matrix(1 0 0 1 -632.6868 279.8555)" fill="#FFFFFF" font-family="'Roboto-Regular'" font-size="17px">i</text>
			<text transform="matrix(1 0 0 1 -628.5618 279.8555)" fill="#FFFFFF" font-family="'Roboto-Regular'" font-size="17px">e</text>
			<text transform="matrix(1 0 0 1 -619.5559 279.8555)" fill="#FFFFFF" font-family="'Roboto-Regular'" font-size="17px">s</text>
			<text transform="matrix(1 0 0 1 -610.7903 279.8555)" fill="#FFFFFF" font-family="'Roboto-Regular'" font-size="17px"> </text>
			<text transform="matrix(1 0 0 1 -606.5813 279.8555)" fill="#FFFFFF" font-family="'Roboto-Regular'" font-size="17px">i</text>
			<text transform="matrix(1 0 0 1 -602.4563 279.8555)" fill="#FFFFFF" font-family="'Roboto-Regular'" font-size="17px">n</text>
			<text transform="matrix(1 0 0 1 -593.0754 279.8555)" fill="#FFFFFF" font-family="'Roboto-Regular'" font-size="17px"> </text>
			<text transform="matrix(1 0 0 1 -588.8674 279.8555)" fill="#FFFFFF" font-family="'Roboto-Regular'" font-size="17px">t</text>
			<text transform="matrix(1 0 0 1 -583.3137 279.8555)" fill="#FFFFFF" font-family="'Roboto-Regular'" font-size="17px">h</text>
			<text transform="matrix(1 0 0 1 -573.9504 279.8555)" fill="#FFFFFF" font-family="'Roboto-Regular'" font-size="17px">e</text>
			<text transform="matrix(1 0 0 1 -564.9446 279.8555)" fill="#FFFFFF" font-family="'Roboto-Regular'" font-size="17px"> </text>
			<text transform="matrix(1 0 0 1 -560.7356 279.8555)" fill="#FFFFFF" font-family="'Roboto-Regular'" font-size="17px">A</text>
			<text transform="matrix(1 0 0 1 -549.6458 279.8555)" fill="#FFFFFF" font-family="'Roboto-Regular'" font-size="17px">m</text>
			<text transform="matrix(1 0 0 1 -534.7463 279.8555)" fill="#FFFFFF" font-family="'Roboto-Regular'" font-size="17px">e</text>
			<text transform="matrix(1 0 0 1 -525.7395 279.8555)" fill="#FFFFFF" font-family="'Roboto-Regular'" font-size="17px">r</text>
			<text transform="matrix(1 0 0 1 -519.9875 279.8555)" fill="#FFFFFF" font-family="'Roboto-Regular'" font-size="17px">i</text>
			<text transform="matrix(1 0 0 1 -515.8625 279.8555)" fill="#FFFFFF" font-family="'Roboto-Regular'" font-size="17px">c</text>
			<text transform="matrix(1 0 0 1 -506.9641 279.8555)" fill="#FFFFFF" font-family="'Roboto-Regular'" font-size="17px">a</text>
			<text transform="matrix(1 0 0 1 -497.7161 279.8555)" fill="#FFFFFF" font-family="'Roboto-Regular'" font-size="17px">s</text>
			<text transform="matrix(1 0 0 1 -488.9504 279.8555)" fill="#FFFFFF" font-family="'Roboto-Regular'" font-size="17px">.</text>
		</g>
		<g>
			<path fill="none" stroke="#FFFFFF" stroke-miterlimit="10" d="M288.519,101.465c6.866,5.373,34.797,28.756,34.541,72.149
				c-0.096,16.364-4.173,30.767-8.272,41.307"/>
			<g>
				<polygon fill="#FFFFFF" points="310.657,211.658 312.015,221.537 319.892,215.423 				"/>
			</g>
		</g>
	</g>
	<g id="bolivia_00000097488056572918667120000012061333357949104574_">
		
			<rect id="bolivia1_00000133517307433945201480000008054814827559310996_" x="-1164.204" y="12.037" fill="#FFC112" width="930.645" height="25.686"/>
		<g id="arrow1_00000165948853979526982110000008963618979171701894_">
			<path fill="none" stroke="#FFFFFF" stroke-miterlimit="10" d="M-241.632,55.628c-3.336,10.205-18.437,52.498-61.984,74.405
				c-16.555,8.328-32.319,11.244-44.132,12.156"/>
			<g>
				<polygon fill="#FFFFFF" points="-346.573,137.073 -354.916,142.535 -346.015,147.03 				"/>
			</g>
		</g>
		
			<rect id="bolivia_00000173140808892488708880000011553929819467102873_" x="84.915" y="23.037" fill="#FFC112" width="284.585" height="25.686"/>
		<g id="bolivia-text_00000158743093744048580890000010127595519816697271_">
			<text transform="matrix(1 0 0 1 -571.6855 130.6445)" fill="#FFC112" font-family="'Roboto-Regular'" font-size="17px">B</text>
			<text transform="matrix(1 0 0 1 -561.1016 130.6445)" fill="#FFC112" font-family="'Roboto-Regular'" font-size="17px">o</text>
			<text transform="matrix(1 0 0 1 -551.4062 130.6445)" fill="#FFC112" font-family="'Roboto-Regular'" font-size="17px">l</text>
			<text transform="matrix(1 0 0 1 -547.2812 130.6445)" fill="#FFC112" font-family="'Roboto-Regular'" font-size="17px">i</text>
			<text transform="matrix(1 0 0 1 -543.1562 130.6445)" fill="#FFC112" font-family="'Roboto-Regular'" font-size="17px">v</text>
			<text transform="matrix(1 0 0 1 -534.9219 130.6445)" fill="#FFC112" font-family="'Roboto-Regular'" font-size="17px">i</text>
			<text transform="matrix(1 0 0 1 -530.7959 130.6445)" fill="#FFC112" font-family="'Roboto-Regular'" font-size="17px">a</text>
			<text transform="matrix(1 0 0 1 -521.5488 130.6445)" fill="#FFC112" font-family="'Roboto-Regular'" font-size="17px"> </text>
			<text transform="matrix(1 0 0 1 -517.3398 130.6445)" fill="#FFC112" font-family="'Roboto-Regular'" font-size="17px">p</text>
			<text transform="matrix(1 0 0 1 -507.8027 130.6445)" fill="#FFC112" font-family="'Roboto-Regular'" font-size="17px">o</text>
			<text transform="matrix(1 0 0 1 -498.1074 130.6445)" fill="#FFC112" font-family="'Roboto-Regular'" font-size="17px">s</text>
			<text transform="matrix(1 0 0 1 -489.3418 130.6445)" fill="#FFC112" font-family="'Roboto-Regular'" font-size="17px">s</text>
			<text transform="matrix(1 0 0 1 -480.5762 130.6445)" fill="#FFC112" font-family="'Roboto-Regular'" font-size="17px">e</text>
			<text transform="matrix(1 0 0 1 -471.5703 130.6445)" fill="#FFC112" font-family="'Roboto-Regular'" font-size="17px">s</text>
			<text transform="matrix(1 0 0 1 -462.8047 130.6445)" fill="#FFC112" font-family="'Roboto-Regular'" font-size="17px">e</text>
			<text transform="matrix(1 0 0 1 -453.7979 130.6445)" fill="#FFC112" font-family="'Roboto-Regular'" font-size="17px">s</text>
			<text transform="matrix(1 0 0 1 -445.0322 130.6445)" fill="#FFC112" font-family="'Roboto-Regular'" font-size="17px"> </text>
			<text transform="matrix(1 0 0 1 -440.8242 130.6445)" fill="#FFC112" font-family="'Roboto-Regular'" font-size="17px">m</text>
			<text transform="matrix(1 0 0 1 -425.9238 130.6445)" fill="#FFC112" font-family="'Roboto-Regular'" font-size="17px">o</text>
			<text transform="matrix(1 0 0 1 -416.2285 130.6445)" fill="#FFC112" font-family="'Roboto-Regular'" font-size="17px">r</text>
			<text transform="matrix(1 0 0 1 -410.4766 130.6445)" fill="#FFC112" font-family="'Roboto-Regular'" font-size="17px">e</text>
			<text transform="matrix(1 0 0 1 -401.4697 130.6445)" fill="#FFC112" font-family="'Roboto-Regular'" font-size="17px"> </text>
			<text transform="matrix(1 0 0 1 -397.2617 130.6445)" fill="#FFC112" font-family="'Roboto-Regular'" font-size="17px">t</text>
			<text transform="matrix(1 0 0 1 -391.708 130.6445)" fill="#FFC112" font-family="'Roboto-Regular'" font-size="17px">h</text>
			<text transform="matrix(1 0 0 1 -382.3447 130.6445)" fill="#FFC112" font-family="'Roboto-Regular'" font-size="17px">a</text>
			<text transform="matrix(1 0 0 1 -373.0977 130.6445)" fill="#FFC112" font-family="'Roboto-Regular'" font-size="17px">n</text>
			<text transform="matrix(1 0 0 1 -363.7178 130.6445)" fill="#FFC112" font-family="'Roboto-Regular'" font-size="17px"> </text>
			<text transform="matrix(1 0 0 1 -561.2891 149.9092)" fill="#FFC112" font-family="'Roboto-Bold'" font-size="17px">2</text>
			<text transform="matrix(1 0 0 1 -551.5352 149.9092)" fill="#FFC112" font-family="'Roboto-Bold'" font-size="17px">0</text>
			<text transform="matrix(1 0 0 1 -541.7822 149.9092)" fill="#FFC112" font-family="'Roboto-Bold'" font-size="17px"> </text>
			<text transform="matrix(1 0 0 1 -537.5488 149.9092)" fill="#FFC112" font-family="'Roboto-Bold'" font-size="17px">p</text>
			<text transform="matrix(1 0 0 1 -527.9785 149.9092)" fill="#FFC112" font-family="'Roboto-Bold'" font-size="17px">e</text>
			<text transform="matrix(1 0 0 1 -518.7891 149.9092)" fill="#FFC112" font-family="'Roboto-Bold'" font-size="17px">r</text>
			<text transform="matrix(1 0 0 1 -512.7461 149.9092)" fill="#FFC112" font-family="'Roboto-Bold'" font-size="17px">c</text>
			<text transform="matrix(1 0 0 1 -503.8809 149.9092)" fill="#FFC112" font-family="'Roboto-Bold'" font-size="17px">e</text>
			<text transform="matrix(1 0 0 1 -494.6914 149.9092)" fill="#FFC112" font-family="'Roboto-Bold'" font-size="17px">n</text>
			<text transform="matrix(1 0 0 1 -485.1709 149.9092)" fill="#FFC112" font-family="'Roboto-Bold'" font-size="17px">t</text>
			<text transform="matrix(1 0 0 1 -479.4268 149.9092)" fill="#FFC112" font-family="'Roboto-Regular'" font-size="17px"> </text>
			<text transform="matrix(1 0 0 1 -475.2188 149.9092)" fill="#FFC112" font-family="'Roboto-Regular'" font-size="17px">o</text>
			<text transform="matrix(1 0 0 1 -465.5234 149.9092)" fill="#FFC112" font-family="'Roboto-Regular'" font-size="17px">f</text>
			<text transform="matrix(1 0 0 1 -459.6211 149.9092)" fill="#FFC112" font-family="'Roboto-Regular'" font-size="17px"> </text>
			<text transform="matrix(1 0 0 1 -455.4121 149.9092)" fill="#FFC112" font-family="'Roboto-Regular'" font-size="17px">t</text>
			<text transform="matrix(1 0 0 1 -449.8594 149.9092)" fill="#FFC112" font-family="'Roboto-Regular'" font-size="17px">h</text>
			<text transform="matrix(1 0 0 1 -440.4961 149.9092)" fill="#FFC112" font-family="'Roboto-Regular'" font-size="17px">e</text>
			<text transform="matrix(1 0 0 1 -431.4902 149.9092)" fill="#FFC112" font-family="'Roboto-Regular'" font-size="17px"> </text>
			<text transform="matrix(1 0 0 1 -427.2812 149.9092)" fill="#FFC112" font-family="'Roboto-Regular'" font-size="17px">w</text>
			<text transform="matrix(1 0 0 1 -414.5059 149.9092)" fill="#FFC112" font-family="'Roboto-Regular'" font-size="17px">o</text>
			<text transform="matrix(1 0 0 1 -404.8105 149.9092)" fill="#FFC112" font-family="'Roboto-Regular'" font-size="17px">r</text>
			<text transform="matrix(1 0 0 1 -399.0586 149.9092)" fill="#FFC112" font-family="'Roboto-Regular'" font-size="17px">l</text>
			<text transform="matrix(1 0 0 1 -394.9336 149.9092)" fill="#FFC112" font-family="'Roboto-Regular'" font-size="17px">d</text>
			<text transform="matrix(1 0 0 1 -385.3457 149.9092)" fill="#FFC112" font-family="'Roboto-Regular'" font-size="17px">’</text>
			<text transform="matrix(1 0 0 1 -382.8809 149.9092)" fill="#FFC112" font-family="'Roboto-Regular'" font-size="17px">s</text>
			<text transform="matrix(1 0 0 1 -374.1152 149.9092)" fill="#FFC112" font-family="'Roboto-Regular'" font-size="17px"> </text>
			<text transform="matrix(1 0 0 1 -550.585 169.1729)" fill="#FFC112" font-family="'Roboto-Regular'" font-size="17px">k</text>
			<text transform="matrix(1 0 0 1 -541.9688 169.1729)" fill="#FFC112" font-family="'Roboto-Regular'" font-size="17px">n</text>
			<text transform="matrix(1 0 0 1 -532.5889 169.1729)" fill="#FFC112" font-family="'Roboto-Regular'" font-size="17px">o</text>
			<text transform="matrix(1 0 0 1 -522.8936 169.1729)" fill="#FFC112" font-family="'Roboto-Regular'" font-size="17px">w</text>
			<text transform="matrix(1 0 0 1 -510.1191 169.1729)" fill="#FFC112" font-family="'Roboto-Regular'" font-size="17px">n</text>
			<text transform="matrix(1 0 0 1 -500.7383 169.1729)" fill="#FFC112" font-family="'Roboto-Regular'" font-size="17px"> </text>
			<text transform="matrix(1 0 0 1 -496.5303 169.1729)" fill="#FFC112" font-family="'Roboto-Regular'" font-size="17px">l</text>
			<text transform="matrix(1 0 0 1 -492.4043 169.1729)" fill="#FFC112" font-family="'Roboto-Regular'" font-size="17px">i</text>
			<text transform="matrix(1 0 0 1 -488.2793 169.1729)" fill="#FFC112" font-family="'Roboto-Regular'" font-size="17px">t</text>
			<text transform="matrix(1 0 0 1 -482.7266 169.1729)" fill="#FFC112" font-family="'Roboto-Regular'" font-size="17px">h</text>
			<text transform="matrix(1 0 0 1 -473.3633 169.1729)" fill="#FFC112" font-family="'Roboto-Regular'" font-size="17px">i</text>
			<text transform="matrix(1 0 0 1 -469.2373 169.1729)" fill="#FFC112" font-family="'Roboto-Regular'" font-size="17px">u</text>
			<text transform="matrix(1 0 0 1 -459.8652 169.1729)" fill="#FFC112" font-family="'Roboto-Regular'" font-size="17px">m</text>
			<text transform="matrix(1 0 0 1 -444.9658 169.1729)" fill="#FFC112" font-family="'Roboto-Regular'" font-size="17px"> </text>
			<text transform="matrix(1 0 0 1 -440.7578 169.1729)" fill="#FFC112" font-family="'Roboto-Regular'" font-size="17px">r</text>
			<text transform="matrix(1 0 0 1 -435.0049 169.1729)" fill="#FFC112" font-family="'Roboto-Regular'" font-size="17px">e</text>
			<text transform="matrix(1 0 0 1 -425.998 169.1729)" fill="#FFC112" font-family="'Roboto-Regular'" font-size="17px">s</text>
			<text transform="matrix(1 0 0 1 -417.2324 169.1729)" fill="#FFC112" font-family="'Roboto-Regular'" font-size="17px">e</text>
			<text transform="matrix(1 0 0 1 -408.2266 169.1729)" fill="#FFC112" font-family="'Roboto-Regular'" font-size="17px">r</text>
			<text transform="matrix(1 0 0 1 -402.3242 169.1729)" fill="#FFC112" font-family="'Roboto-Regular'" font-size="17px">v</text>
			<text transform="matrix(1 0 0 1 -394.0898 169.1729)" fill="#FFC112" font-family="'Roboto-Regular'" font-size="17px">e</text>
			<text transform="matrix(1 0 0 1 -385.084 169.1729)" fill="#FFC112" font-family="'Roboto-Regular'" font-size="17px">.</text>
			<text transform="matrix(1 0 0 1 -571.6855 130.6445)" fill="#FFFFFF" font-family="'Roboto-Regular'" font-size="17px">B</text>
			<text transform="matrix(1 0 0 1 -561.1016 130.6445)" fill="#FFFFFF" font-family="'Roboto-Regular'" font-size="17px">o</text>
			<text transform="matrix(1 0 0 1 -551.4062 130.6445)" fill="#FFFFFF" font-family="'Roboto-Regular'" font-size="17px">l</text>
			<text transform="matrix(1 0 0 1 -547.2812 130.6445)" fill="#FFFFFF" font-family="'Roboto-Regular'" font-size="17px">i</text>
			<text transform="matrix(1 0 0 1 -543.1562 130.6445)" fill="#FFFFFF" font-family="'Roboto-Regular'" font-size="17px">v</text>
			<text transform="matrix(1 0 0 1 -534.9219 130.6445)" fill="#FFFFFF" font-family="'Roboto-Regular'" font-size="17px">i</text>
			<text transform="matrix(1 0 0 1 -530.7959 130.6445)" fill="#FFFFFF" font-family="'Roboto-Regular'" font-size="17px">a</text>
			<text transform="matrix(1 0 0 1 -521.5488 130.6445)" fill="#FFFFFF" font-family="'Roboto-Regular'" font-size="17px"> </text>
			<text transform="matrix(1 0 0 1 -517.3398 130.6445)" fill="#FFFFFF" font-family="'Roboto-Regular'" font-size="17px">p</text>
			<text transform="matrix(1 0 0 1 -507.8027 130.6445)" fill="#FFFFFF" font-family="'Roboto-Regular'" font-size="17px">o</text>
			<text transform="matrix(1 0 0 1 -498.1074 130.6445)" fill="#FFFFFF" font-family="'Roboto-Regular'" font-size="17px">s</text>
			<text transform="matrix(1 0 0 1 -489.3418 130.6445)" fill="#FFFFFF" font-family="'Roboto-Regular'" font-size="17px">s</text>
			<text transform="matrix(1 0 0 1 -480.5762 130.6445)" fill="#FFFFFF" font-family="'Roboto-Regular'" font-size="17px">e</text>
			<text transform="matrix(1 0 0 1 -471.5703 130.6445)" fill="#FFFFFF" font-family="'Roboto-Regular'" font-size="17px">s</text>
			<text transform="matrix(1 0 0 1 -462.8047 130.6445)" fill="#FFFFFF" font-family="'Roboto-Regular'" font-size="17px">e</text>
			<text transform="matrix(1 0 0 1 -453.7979 130.6445)" fill="#FFFFFF" font-family="'Roboto-Regular'" font-size="17px">s</text>
			<text transform="matrix(1 0 0 1 -445.0322 130.6445)" fill="#FFFFFF" font-family="'Roboto-Regular'" font-size="17px"> </text>
			<text transform="matrix(1 0 0 1 -440.8242 130.6445)" fill="#FFFFFF" font-family="'Roboto-Regular'" font-size="17px">m</text>
			<text transform="matrix(1 0 0 1 -425.9238 130.6445)" fill="#FFFFFF" font-family="'Roboto-Regular'" font-size="17px">o</text>
			<text transform="matrix(1 0 0 1 -416.2285 130.6445)" fill="#FFFFFF" font-family="'Roboto-Regular'" font-size="17px">r</text>
			<text transform="matrix(1 0 0 1 -410.4766 130.6445)" fill="#FFFFFF" font-family="'Roboto-Regular'" font-size="17px">e</text>
			<text transform="matrix(1 0 0 1 -401.4697 130.6445)" fill="#FFFFFF" font-family="'Roboto-Regular'" font-size="17px"> </text>
			<text transform="matrix(1 0 0 1 -397.2617 130.6445)" fill="#FFFFFF" font-family="'Roboto-Regular'" font-size="17px">t</text>
			<text transform="matrix(1 0 0 1 -391.708 130.6445)" fill="#FFFFFF" font-family="'Roboto-Regular'" font-size="17px">h</text>
			<text transform="matrix(1 0 0 1 -382.3447 130.6445)" fill="#FFFFFF" font-family="'Roboto-Regular'" font-size="17px">a</text>
			<text transform="matrix(1 0 0 1 -373.0977 130.6445)" fill="#FFFFFF" font-family="'Roboto-Regular'" font-size="17px">n</text>
			<text transform="matrix(1 0 0 1 -363.7178 130.6445)" fill="#FFFFFF" font-family="'Roboto-Regular'" font-size="17px"> </text>
			<text transform="matrix(1 0 0 1 -561.2891 149.9092)" fill="#FFFFFF" font-family="'Roboto-Bold'" font-size="17px">2</text>
			<text transform="matrix(1 0 0 1 -551.5352 149.9092)" fill="#FFFFFF" font-family="'Roboto-Bold'" font-size="17px">0</text>
			<text transform="matrix(1 0 0 1 -541.7822 149.9092)" fill="#FFFFFF" font-family="'Roboto-Bold'" font-size="17px"> </text>
			<text transform="matrix(1 0 0 1 -537.5488 149.9092)" fill="#FFFFFF" font-family="'Roboto-Bold'" font-size="17px">p</text>
			<text transform="matrix(1 0 0 1 -527.9785 149.9092)" fill="#FFFFFF" font-family="'Roboto-Bold'" font-size="17px">e</text>
			<text transform="matrix(1 0 0 1 -518.7891 149.9092)" fill="#FFFFFF" font-family="'Roboto-Bold'" font-size="17px">r</text>
			<text transform="matrix(1 0 0 1 -512.7461 149.9092)" fill="#FFFFFF" font-family="'Roboto-Bold'" font-size="17px">c</text>
			<text transform="matrix(1 0 0 1 -503.8809 149.9092)" fill="#FFFFFF" font-family="'Roboto-Bold'" font-size="17px">e</text>
			<text transform="matrix(1 0 0 1 -494.6914 149.9092)" fill="#FFFFFF" font-family="'Roboto-Bold'" font-size="17px">n</text>
			<text transform="matrix(1 0 0 1 -485.1709 149.9092)" fill="#FFFFFF" font-family="'Roboto-Bold'" font-size="17px">t</text>
			<text transform="matrix(1 0 0 1 -479.4268 149.9092)" fill="#FFFFFF" font-family="'Roboto-Regular'" font-size="17px"> </text>
			<text transform="matrix(1 0 0 1 -475.2188 149.9092)" fill="#FFFFFF" font-family="'Roboto-Regular'" font-size="17px">o</text>
			<text transform="matrix(1 0 0 1 -465.5234 149.9092)" fill="#FFFFFF" font-family="'Roboto-Regular'" font-size="17px">f</text>
			<text transform="matrix(1 0 0 1 -459.6211 149.9092)" fill="#FFFFFF" font-family="'Roboto-Regular'" font-size="17px"> </text>
			<text transform="matrix(1 0 0 1 -455.4121 149.9092)" fill="#FFFFFF" font-family="'Roboto-Regular'" font-size="17px">t</text>
			<text transform="matrix(1 0 0 1 -449.8594 149.9092)" fill="#FFFFFF" font-family="'Roboto-Regular'" font-size="17px">h</text>
			<text transform="matrix(1 0 0 1 -440.4961 149.9092)" fill="#FFFFFF" font-family="'Roboto-Regular'" font-size="17px">e</text>
			<text transform="matrix(1 0 0 1 -431.4902 149.9092)" fill="#FFFFFF" font-family="'Roboto-Regular'" font-size="17px"> </text>
			<text transform="matrix(1 0 0 1 -427.2812 149.9092)" fill="#FFFFFF" font-family="'Roboto-Regular'" font-size="17px">w</text>
			<text transform="matrix(1 0 0 1 -414.5059 149.9092)" fill="#FFFFFF" font-family="'Roboto-Regular'" font-size="17px">o</text>
			<text transform="matrix(1 0 0 1 -404.8105 149.9092)" fill="#FFFFFF" font-family="'Roboto-Regular'" font-size="17px">r</text>
			<text transform="matrix(1 0 0 1 -399.0586 149.9092)" fill="#FFFFFF" font-family="'Roboto-Regular'" font-size="17px">l</text>
			<text transform="matrix(1 0 0 1 -394.9336 149.9092)" fill="#FFFFFF" font-family="'Roboto-Regular'" font-size="17px">d</text>
			<text transform="matrix(1 0 0 1 -385.3457 149.9092)" fill="#FFFFFF" font-family="'Roboto-Regular'" font-size="17px">’</text>
			<text transform="matrix(1 0 0 1 -382.8809 149.9092)" fill="#FFFFFF" font-family="'Roboto-Regular'" font-size="17px">s</text>
			<text transform="matrix(1 0 0 1 -374.1152 149.9092)" fill="#FFFFFF" font-family="'Roboto-Regular'" font-size="17px"> </text>
			<text transform="matrix(1 0 0 1 -550.585 169.1729)" fill="#FFFFFF" font-family="'Roboto-Regular'" font-size="17px">k</text>
			<text transform="matrix(1 0 0 1 -541.9688 169.1729)" fill="#FFFFFF" font-family="'Roboto-Regular'" font-size="17px">n</text>
			<text transform="matrix(1 0 0 1 -532.5889 169.1729)" fill="#FFFFFF" font-family="'Roboto-Regular'" font-size="17px">o</text>
			<text transform="matrix(1 0 0 1 -522.8936 169.1729)" fill="#FFFFFF" font-family="'Roboto-Regular'" font-size="17px">w</text>
			<text transform="matrix(1 0 0 1 -510.1191 169.1729)" fill="#FFFFFF" font-family="'Roboto-Regular'" font-size="17px">n</text>
			<text transform="matrix(1 0 0 1 -500.7383 169.1729)" fill="#FFFFFF" font-family="'Roboto-Regular'" font-size="17px"> </text>
			<text transform="matrix(1 0 0 1 -496.5303 169.1729)" fill="#FFFFFF" font-family="'Roboto-Regular'" font-size="17px">l</text>
			<text transform="matrix(1 0 0 1 -492.4043 169.1729)" fill="#FFFFFF" font-family="'Roboto-Regular'" font-size="17px">i</text>
			<text transform="matrix(1 0 0 1 -488.2793 169.1729)" fill="#FFFFFF" font-family="'Roboto-Regular'" font-size="17px">t</text>
			<text transform="matrix(1 0 0 1 -482.7266 169.1729)" fill="#FFFFFF" font-family="'Roboto-Regular'" font-size="17px">h</text>
			<text transform="matrix(1 0 0 1 -473.3633 169.1729)" fill="#FFFFFF" font-family="'Roboto-Regular'" font-size="17px">i</text>
			<text transform="matrix(1 0 0 1 -469.2373 169.1729)" fill="#FFFFFF" font-family="'Roboto-Regular'" font-size="17px">u</text>
			<text transform="matrix(1 0 0 1 -459.8652 169.1729)" fill="#FFFFFF" font-family="'Roboto-Regular'" font-size="17px">m</text>
			<text transform="matrix(1 0 0 1 -444.9658 169.1729)" fill="#FFFFFF" font-family="'Roboto-Regular'" font-size="17px"> </text>
			<text transform="matrix(1 0 0 1 -440.7578 169.1729)" fill="#FFFFFF" font-family="'Roboto-Regular'" font-size="17px">r</text>
			<text transform="matrix(1 0 0 1 -435.0049 169.1729)" fill="#FFFFFF" font-family="'Roboto-Regular'" font-size="17px">e</text>
			<text transform="matrix(1 0 0 1 -425.998 169.1729)" fill="#FFFFFF" font-family="'Roboto-Regular'" font-size="17px">s</text>
			<text transform="matrix(1 0 0 1 -417.2324 169.1729)" fill="#FFFFFF" font-family="'Roboto-Regular'" font-size="17px">e</text>
			<text transform="matrix(1 0 0 1 -408.2266 169.1729)" fill="#FFFFFF" font-family="'Roboto-Regular'" font-size="17px">r</text>
			<text transform="matrix(1 0 0 1 -402.3242 169.1729)" fill="#FFFFFF" font-family="'Roboto-Regular'" font-size="17px">v</text>
			<text transform="matrix(1 0 0 1 -394.0898 169.1729)" fill="#FFFFFF" font-family="'Roboto-Regular'" font-size="17px">e</text>
			<text transform="matrix(1 0 0 1 -385.084 169.1729)" fill="#FFFFFF" font-family="'Roboto-Regular'" font-size="17px">.</text>
		</g>
		<g id="bolivia-arrow_00000106861910458303802930000013635366385505037961_">
			<path fill="none" stroke="#FFFFFF" stroke-miterlimit="10" d="M374.438,60.054c3.06,8.164,14.71,42.677-8.122,79.578
				c-8.611,13.916-19.596,24.083-28.587,30.943"/>
			<g>
				<polygon fill="#FFFFFF" points="335.903,165.637 331.913,174.775 341.822,173.662 				"/>
			</g>
		</g>
	</g>
</g>
<style>
#g-reserve-mobile-interaction-img rect, #g-reserve-mobile-interaction-img circle, #g-reserve-mobile-interaction-img path, #g-reserve-mobile-interaction-img line, #g-reserve-mobile-interaction-img polyline, #g-reserve-mobile-interaction-img polygon { vector-effect: non-scaling-stroke; }
</style>
</svg>

