<?xml version="1.0" encoding="utf-8"?>
<!-- Generator: Adobe Illustrator 27.2.0, SVG Export Plug-In . SVG Version: 6.00 Build 0)  -->
<svg version="1.2" baseProfile="tiny" id="g-reserve-large-interaction-img" xmlns="http://www.w3.org/2000/svg" xmlns:xlink="http://www.w3.org/1999/xlink"
	 x="0px" y="0px" viewBox="0 0 1040 701" overflow="visible" xml:space="preserve">
<g>
	<g id="americas_00000130618644150654629620000008868096160148194483_">
		<rect x="102.296" y="53.86" fill="#FFC112" width="886.343" height="25.686"/>
		<rect x="102.296" y="115.505" fill="#FFC112" width="487.495" height="25.686"/>
		<rect x="102.296" y="300.442" fill="#FFC112" width="75.342" height="25.686"/>
		<rect x="102.296" y="423.733" fill="#FFC112" width="39.019" height="25.686"/>
		<rect x="102.296" y="485.378" fill="#FFC112" width="32.355" height="25.686"/>
		
			<rect id="bolivia_00000001643721746775078360000004810706023476516030_" x="102.296" y="23.037" fill="#FFC112" width="930.645" height="25.686"/>
		
			<rect id="bolivia_00000039130604396396194520000010990730918082590091_" x="1351.415" y="34.037" fill="#FFC112" width="284.585" height="25.686"/>
		<rect x="1351.415" y="64.86" fill="#FFC112" width="271.038" height="25.686"/>
		<rect x="1351.415" y="95.682" fill="#FFC112" width="162.62" height="25.686"/>
		<rect x="1351.415" y="126.505" fill="#FFC112" width="149.073" height="25.686"/>
		
			<rect id="bolivia_00000165945382736180312330000000457525453224055979_" x="102.296" y="84.682" fill="#FFC112" width="531.797" height="25.686"/>
		<rect x="1351.415" y="311.442" fill="#FFC112" width="23.039" height="25.686"/>
		<rect x="1351.415" y="434.733" fill="#FFC112" width="11.932" height="25.686"/>
		<rect x="1351.415" y="496.378" fill="#FFC112" width="9.894" height="25.686"/>
		<g>
			<path fill="none" stroke="#FFFFFF" stroke-miterlimit="10" d="M688.555,107.489c7.763,7.416,39.387,39.301,40.34,88.038
				c0.362,18.529-3.816,34.006-8.095,45.054"/>
			<g>
				<polygon fill="#FFFFFF" points="716.693,237.313 718.017,247.196 725.915,241.109 				"/>
			</g>
		</g>
		<g>
			<path fill="none" stroke="#FFFFFF" stroke-miterlimit="10" d="M1555.019,112.465c6.866,5.373,34.797,28.756,34.541,72.149
				c-0.096,16.364-4.173,30.767-8.272,41.307"/>
			<g>
				<polygon fill="#FFFFFF" points="1577.157,222.658 1578.515,232.537 1586.392,226.423 				"/>
			</g>
		</g>
		<text transform="matrix(1 0 0 1 1494.4548 251.5908)" fill="#FFFFFF" font-family="'Roboto-Regular'" font-size="15px">C</text>
		<text transform="matrix(1 0 0 1 1504.2175 251.5908)" fill="#FFFFFF" font-family="'Roboto-Regular'" font-size="15px">l</text>
		<text transform="matrix(1 0 0 1 1507.8582 251.5908)" fill="#FFFFFF" font-family="'Roboto-Regular'" font-size="15px">o</text>
		<text transform="matrix(1 0 0 1 1516.4128 251.5908)" fill="#FFFFFF" font-family="'Roboto-Regular'" font-size="15px">s</text>
		<text transform="matrix(1 0 0 1 1524.1472 251.5908)" fill="#FFFFFF" font-family="'Roboto-Regular'" font-size="15px">e</text>
		<text transform="matrix(1 0 0 1 1532.0945 251.5908)" fill="#FFFFFF" font-family="'Roboto-Regular'" font-size="15px"> </text>
		<text transform="matrix(1 0 0 1 1535.8074 251.5908)" fill="#FFFFFF" font-family="'Roboto-Regular'" font-size="15px">t</text>
		<text transform="matrix(1 0 0 1 1540.5613 251.5908)" fill="#FFFFFF" font-family="'Roboto-Regular'" font-size="15px">o</text>
		<text transform="matrix(1 0 0 1 1549.116 251.5908)" fill="#FFFFFF" font-family="'Roboto-Regular'" font-size="15px"> </text>
		<text transform="matrix(1 0 0 1 1552.8289 251.5908)" fill="#FFFFFF" font-family="'Roboto-Regular'" font-size="15px">7</text>
		<text transform="matrix(1 0 0 1 1561.2517 251.5908)" fill="#FFFFFF" font-family="'Roboto-Regular'" font-size="15px">0</text>
		<text transform="matrix(1 0 0 1 1569.6746 251.5908)" fill="#FFFFFF" font-family="'Roboto-Regular'" font-size="15px"> </text>
		<text transform="matrix(1 0 0 1 1573.3875 251.5908)" fill="#FFFFFF" font-family="'Roboto-Regular'" font-size="15px">p</text>
		<text transform="matrix(1 0 0 1 1581.8035 251.5908)" fill="#FFFFFF" font-family="'Roboto-Regular'" font-size="15px">e</text>
		<text transform="matrix(1 0 0 1 1589.7507 251.5908)" fill="#FFFFFF" font-family="'Roboto-Regular'" font-size="15px">r</text>
		<text transform="matrix(1 0 0 1 1594.6863 251.5908)" fill="#FFFFFF" font-family="'Roboto-Regular'" font-size="15px">c</text>
		<text transform="matrix(1 0 0 1 1602.5378 251.5908)" fill="#FFFFFF" font-family="'Roboto-Regular'" font-size="15px">e</text>
		<text transform="matrix(1 0 0 1 1610.4851 251.5908)" fill="#FFFFFF" font-family="'Roboto-Regular'" font-size="15px">n</text>
		<text transform="matrix(1 0 0 1 1618.7615 251.5908)" fill="#FFFFFF" font-family="'Roboto-Regular'" font-size="15px">t</text>
		<text transform="matrix(1 0 0 1 1623.6609 251.5908)" fill="#FFFFFF" font-family="'Roboto-Regular'" font-size="15px"> </text>
		<text transform="matrix(1 0 0 1 1512.4207 269.5908)" fill="#FFFFFF" font-family="'Roboto-Regular'" font-size="15px">o</text>
		<text transform="matrix(1 0 0 1 1520.9753 269.5908)" fill="#FFFFFF" font-family="'Roboto-Regular'" font-size="15px">f</text>
		<text transform="matrix(1 0 0 1 1526.1824 269.5908)" fill="#FFFFFF" font-family="'Roboto-Regular'" font-size="15px"> </text>
		<text transform="matrix(1 0 0 1 1529.8962 269.5908)" fill="#FFFFFF" font-family="'Roboto-Regular'" font-size="15px">r</text>
		<text transform="matrix(1 0 0 1 1534.9714 269.5908)" fill="#FFFFFF" font-family="'Roboto-Regular'" font-size="15px">e</text>
		<text transform="matrix(1 0 0 1 1542.9187 269.5908)" fill="#FFFFFF" font-family="'Roboto-Regular'" font-size="15px">s</text>
		<text transform="matrix(1 0 0 1 1550.6531 269.5908)" fill="#FFFFFF" font-family="'Roboto-Regular'" font-size="15px">e</text>
		<text transform="matrix(1 0 0 1 1558.6003 269.5908)" fill="#FFFFFF" font-family="'Roboto-Regular'" font-size="15px">r</text>
		<text transform="matrix(1 0 0 1 1563.8074 269.5908)" fill="#FFFFFF" font-family="'Roboto-Regular'" font-size="15px">v</text>
		<text transform="matrix(1 0 0 1 1571.073 269.5908)" fill="#FFFFFF" font-family="'Roboto-Regular'" font-size="15px">e</text>
		<text transform="matrix(1 0 0 1 1579.0203 269.5908)" fill="#FFFFFF" font-family="'Roboto-Regular'" font-size="15px"> </text>
		<text transform="matrix(1 0 0 1 1582.7332 269.5908)" fill="#FFFFFF" font-family="'Roboto-Regular'" font-size="15px">l</text>
		<text transform="matrix(1 0 0 1 1586.3738 269.5908)" fill="#FFFFFF" font-family="'Roboto-Regular'" font-size="15px">i</text>
		<text transform="matrix(1 0 0 1 1590.0134 269.5908)" fill="#FFFFFF" font-family="'Roboto-Regular'" font-size="15px">e</text>
		<text transform="matrix(1 0 0 1 1597.9597 269.5908)" fill="#FFFFFF" font-family="'Roboto-Regular'" font-size="15px">s</text>
		<text transform="matrix(1 0 0 1 1605.6941 269.5908)" fill="#FFFFFF" font-family="'Roboto-Regular'" font-size="15px"> </text>
		<text transform="matrix(1 0 0 1 1507.0457 287.5908)" fill="#FFFFFF" font-family="'Roboto-Regular'" font-size="15px">i</text>
		<text transform="matrix(1 0 0 1 1510.6863 287.5908)" fill="#FFFFFF" font-family="'Roboto-Regular'" font-size="15px">n</text>
		<text transform="matrix(1 0 0 1 1518.9617 287.5908)" fill="#FFFFFF" font-family="'Roboto-Regular'" font-size="15px"> </text>
		<text transform="matrix(1 0 0 1 1522.6755 287.5908)" fill="#FFFFFF" font-family="'Roboto-Regular'" font-size="15px">t</text>
		<text transform="matrix(1 0 0 1 1527.575 287.5908)" fill="#FFFFFF" font-family="'Roboto-Regular'" font-size="15px">h</text>
		<text transform="matrix(1 0 0 1 1535.8367 287.5908)" fill="#FFFFFF" font-family="'Roboto-Regular'" font-size="15px">e</text>
		<text transform="matrix(1 0 0 1 1543.7839 287.5908)" fill="#FFFFFF" font-family="'Roboto-Regular'" font-size="15px"> </text>
		<text transform="matrix(1 0 0 1 1547.4968 287.5908)" fill="#FFFFFF" font-family="'Roboto-Regular'" font-size="15px">A</text>
		<text transform="matrix(1 0 0 1 1557.282 287.5908)" fill="#FFFFFF" font-family="'Roboto-Regular'" font-size="15px">m</text>
		<text transform="matrix(1 0 0 1 1570.4294 287.5908)" fill="#FFFFFF" font-family="'Roboto-Regular'" font-size="15px">e</text>
		<text transform="matrix(1 0 0 1 1578.3757 287.5908)" fill="#FFFFFF" font-family="'Roboto-Regular'" font-size="15px">r</text>
		<text transform="matrix(1 0 0 1 1583.4519 287.5908)" fill="#FFFFFF" font-family="'Roboto-Regular'" font-size="15px">i</text>
		<text transform="matrix(1 0 0 1 1587.0925 287.5908)" fill="#FFFFFF" font-family="'Roboto-Regular'" font-size="15px">c</text>
		<text transform="matrix(1 0 0 1 1594.9441 287.5908)" fill="#FFFFFF" font-family="'Roboto-Regular'" font-size="15px">a</text>
		<text transform="matrix(1 0 0 1 1603.1023 287.5908)" fill="#FFFFFF" font-family="'Roboto-Regular'" font-size="15px">s</text>
		<text transform="matrix(1 0 0 1 1610.8367 287.5908)" fill="#FFFFFF" font-family="'Roboto-Regular'" font-size="15px">.</text>
	</g>
	<g id="bolivia_00000022535380371190021570000004903481200472804521_">
		
			<rect id="bolivia1_00000088822335906177480350000001327359507286765227_" x="102.296" y="23.037" fill="#FFC112" width="930.645" height="25.686"/>
		<g id="arrow1_00000177443269545287910610000012187269293443414661_">
			<path fill="none" stroke="#FFFFFF" stroke-miterlimit="10" d="M1024.868,66.628c-3.336,10.205-18.437,52.498-61.984,74.405
				c-16.555,8.328-32.319,11.244-44.132,12.156"/>
			<g>
				<polygon fill="#FFFFFF" points="919.927,148.073 911.584,153.535 920.485,158.03 				"/>
			</g>
		</g>
		
			<rect id="bolivia_00000005984937443024323890000010729575720522846903_" x="1351.415" y="34.037" fill="#FFC112" width="284.585" height="25.686"/>
		<g id="bolivia-arrow_00000101065443320132111870000017074626334933507004_">
			<path fill="none" stroke="#FFFFFF" stroke-miterlimit="10" d="M1640.938,71.054c3.06,8.164,14.71,42.677-8.122,79.578
				c-8.611,13.916-19.596,24.083-28.587,30.943"/>
			<g>
				<polygon fill="#FFFFFF" points="1602.403,176.637 1598.413,185.775 1608.322,184.662 				"/>
			</g>
		</g>
		<text transform="matrix(1 0 0 1 1512.1689 213.6445)" fill="#FFFFFF" font-family="'Roboto-Regular'" font-size="15px">B</text>
		<text transform="matrix(1 0 0 1 1521.5078 213.6445)" fill="#FFFFFF" font-family="'Roboto-Regular'" font-size="15px">o</text>
		<text transform="matrix(1 0 0 1 1530.0625 213.6445)" fill="#FFFFFF" font-family="'Roboto-Regular'" font-size="15px">l</text>
		<text transform="matrix(1 0 0 1 1533.7021 213.6445)" fill="#FFFFFF" font-family="'Roboto-Regular'" font-size="15px">i</text>
		<text transform="matrix(1 0 0 1 1537.3418 213.6445)" fill="#FFFFFF" font-family="'Roboto-Regular'" font-size="15px">v</text>
		<text transform="matrix(1 0 0 1 1544.6074 213.6445)" fill="#FFFFFF" font-family="'Roboto-Regular'" font-size="15px">i</text>
		<text transform="matrix(1 0 0 1 1548.248 213.6445)" fill="#FFFFFF" font-family="'Roboto-Regular'" font-size="15px">a</text>
		<text transform="matrix(1 0 0 1 1556.4072 213.6445)" fill="#FFFFFF" font-family="'Roboto-Regular'" font-size="15px"> </text>
		<text transform="matrix(1 0 0 1 1560.1211 213.6445)" fill="#FFFFFF" font-family="'Roboto-Regular'" font-size="15px">p</text>
		<text transform="matrix(1 0 0 1 1568.5361 213.6445)" fill="#FFFFFF" font-family="'Roboto-Regular'" font-size="15px">o</text>
		<text transform="matrix(1 0 0 1 1577.0908 213.6445)" fill="#FFFFFF" font-family="'Roboto-Regular'" font-size="15px">s</text>
		<text transform="matrix(1 0 0 1 1584.8252 213.6445)" fill="#FFFFFF" font-family="'Roboto-Regular'" font-size="15px">s</text>
		<text transform="matrix(1 0 0 1 1592.5596 213.6445)" fill="#FFFFFF" font-family="'Roboto-Regular'" font-size="15px">e</text>
		<text transform="matrix(1 0 0 1 1600.5059 213.6445)" fill="#FFFFFF" font-family="'Roboto-Regular'" font-size="15px">s</text>
		<text transform="matrix(1 0 0 1 1608.2402 213.6445)" fill="#FFFFFF" font-family="'Roboto-Regular'" font-size="15px">e</text>
		<text transform="matrix(1 0 0 1 1616.1875 213.6445)" fill="#FFFFFF" font-family="'Roboto-Regular'" font-size="15px">s</text>
		<text transform="matrix(1 0 0 1 1623.9219 213.6445)" fill="#FFFFFF" font-family="'Roboto-Regular'" font-size="15px"> </text>
		<text transform="matrix(1 0 0 1 1496.0557 231.6445)" fill="#FFFFFF" font-family="'Roboto-Regular'" font-size="15px">m</text>
		<text transform="matrix(1 0 0 1 1509.2031 231.6445)" fill="#FFFFFF" font-family="'Roboto-Regular'" font-size="15px">o</text>
		<text transform="matrix(1 0 0 1 1517.7578 231.6445)" fill="#FFFFFF" font-family="'Roboto-Regular'" font-size="15px">r</text>
		<text transform="matrix(1 0 0 1 1522.833 231.6445)" fill="#FFFFFF" font-family="'Roboto-Regular'" font-size="15px">e</text>
		<text transform="matrix(1 0 0 1 1530.7793 231.6445)" fill="#FFFFFF" font-family="'Roboto-Regular'" font-size="15px"> </text>
		<text transform="matrix(1 0 0 1 1534.4932 231.6445)" fill="#FFFFFF" font-family="'Roboto-Regular'" font-size="15px">t</text>
		<text transform="matrix(1 0 0 1 1539.3926 231.6445)" fill="#FFFFFF" font-family="'Roboto-Regular'" font-size="15px">h</text>
		<text transform="matrix(1 0 0 1 1547.6543 231.6445)" fill="#FFFFFF" font-family="'Roboto-Regular'" font-size="15px">a</text>
		<text transform="matrix(1 0 0 1 1555.8145 231.6445)" fill="#FFFFFF" font-family="'Roboto-Regular'" font-size="15px">n</text>
		<text transform="matrix(1 0 0 1 1564.0898 231.6445)" fill="#FFFFFF" font-family="'Roboto-Regular'" font-size="15px"> </text>
		<text transform="matrix(1 0 0 1 1567.8037 231.6445)" fill="#FFFFFF" font-family="'Roboto-Bold'" font-size="15px">2</text>
		<text transform="matrix(1 0 0 1 1576.4102 231.6445)" fill="#FFFFFF" font-family="'Roboto-Bold'" font-size="15px">0</text>
		<text transform="matrix(1 0 0 1 1585.0156 231.6445)" fill="#FFFFFF" font-family="'Roboto-Bold'" font-size="15px"> </text>
		<text transform="matrix(1 0 0 1 1588.751 231.6445)" fill="#FFFFFF" font-family="'Roboto-Bold'" font-size="15px">p</text>
		<text transform="matrix(1 0 0 1 1597.1953 231.6445)" fill="#FFFFFF" font-family="'Roboto-Bold'" font-size="15px">e</text>
		<text transform="matrix(1 0 0 1 1605.3037 231.6445)" fill="#FFFFFF" font-family="'Roboto-Bold'" font-size="15px">r</text>
		<text transform="matrix(1 0 0 1 1610.6357 231.6445)" fill="#FFFFFF" font-family="'Roboto-Bold'" font-size="15px">c</text>
		<text transform="matrix(1 0 0 1 1618.458 231.6445)" fill="#FFFFFF" font-family="'Roboto-Bold'" font-size="15px">e</text>
		<text transform="matrix(1 0 0 1 1626.5664 231.6445)" fill="#FFFFFF" font-family="'Roboto-Bold'" font-size="15px">n</text>
		<text transform="matrix(1 0 0 1 1634.9668 231.6445)" fill="#FFFFFF" font-family="'Roboto-Bold'" font-size="15px">t</text>
		<text transform="matrix(1 0 0 1 1640.0352 231.6445)" fill="#FFFFFF" font-family="'Roboto-Regular'" font-size="15px"> </text>
		<text transform="matrix(1 0 0 1 1499.5938 249.6445)" fill="#FFFFFF" font-family="'Roboto-Regular'" font-size="15px">o</text>
		<text transform="matrix(1 0 0 1 1508.1484 249.6445)" fill="#FFFFFF" font-family="'Roboto-Regular'" font-size="15px">f</text>
		<text transform="matrix(1 0 0 1 1513.3555 249.6445)" fill="#FFFFFF" font-family="'Roboto-Regular'" font-size="15px"> </text>
		<text transform="matrix(1 0 0 1 1517.0693 249.6445)" fill="#FFFFFF" font-family="'Roboto-Regular'" font-size="15px">t</text>
		<text transform="matrix(1 0 0 1 1521.9688 249.6445)" fill="#FFFFFF" font-family="'Roboto-Regular'" font-size="15px">h</text>
		<text transform="matrix(1 0 0 1 1530.2305 249.6445)" fill="#FFFFFF" font-family="'Roboto-Regular'" font-size="15px">e</text>
		<text transform="matrix(1 0 0 1 1538.1777 249.6445)" fill="#FFFFFF" font-family="'Roboto-Regular'" font-size="15px"> </text>
		<text transform="matrix(1 0 0 1 1541.8906 249.6445)" fill="#FFFFFF" font-family="'Roboto-Regular'" font-size="15px">w</text>
		<text transform="matrix(1 0 0 1 1553.1631 249.6445)" fill="#FFFFFF" font-family="'Roboto-Regular'" font-size="15px">o</text>
		<text transform="matrix(1 0 0 1 1561.7178 249.6445)" fill="#FFFFFF" font-family="'Roboto-Regular'" font-size="15px">r</text>
		<text transform="matrix(1 0 0 1 1566.793 249.6445)" fill="#FFFFFF" font-family="'Roboto-Regular'" font-size="15px">l</text>
		<text transform="matrix(1 0 0 1 1570.4336 249.6445)" fill="#FFFFFF" font-family="'Roboto-Regular'" font-size="15px">d</text>
		<text transform="matrix(1 0 0 1 1578.8926 249.6445)" fill="#FFFFFF" font-family="'Roboto-Regular'" font-size="15px">’</text>
		<text transform="matrix(1 0 0 1 1581.0684 249.6445)" fill="#FFFFFF" font-family="'Roboto-Regular'" font-size="15px">s</text>
		<text transform="matrix(1 0 0 1 1588.8027 249.6445)" fill="#FFFFFF" font-family="'Roboto-Regular'" font-size="15px"> </text>
		<text transform="matrix(1 0 0 1 1592.5156 249.6445)" fill="#FFFFFF" font-family="'Roboto-Regular'" font-size="15px">k</text>
		<text transform="matrix(1 0 0 1 1600.1191 249.6445)" fill="#FFFFFF" font-family="'Roboto-Regular'" font-size="15px">n</text>
		<text transform="matrix(1 0 0 1 1608.3945 249.6445)" fill="#FFFFFF" font-family="'Roboto-Regular'" font-size="15px">o</text>
		<text transform="matrix(1 0 0 1 1616.9492 249.6445)" fill="#FFFFFF" font-family="'Roboto-Regular'" font-size="15px">w</text>
		<text transform="matrix(1 0 0 1 1628.2217 249.6445)" fill="#FFFFFF" font-family="'Roboto-Regular'" font-size="15px">n</text>
		<text transform="matrix(1 0 0 1 1636.498 249.6445)" fill="#FFFFFF" font-family="'Roboto-Regular'" font-size="15px"> </text>
		<text transform="matrix(1 0 0 1 1518.7607 267.6445)" fill="#FFFFFF" font-family="'Roboto-Regular'" font-size="15px">l</text>
		<text transform="matrix(1 0 0 1 1522.4004 267.6445)" fill="#FFFFFF" font-family="'Roboto-Regular'" font-size="15px">i</text>
		<text transform="matrix(1 0 0 1 1526.041 267.6445)" fill="#FFFFFF" font-family="'Roboto-Regular'" font-size="15px">t</text>
		<text transform="matrix(1 0 0 1 1530.9414 267.6445)" fill="#FFFFFF" font-family="'Roboto-Regular'" font-size="15px">h</text>
		<text transform="matrix(1 0 0 1 1539.2031 267.6445)" fill="#FFFFFF" font-family="'Roboto-Regular'" font-size="15px">i</text>
		<text transform="matrix(1 0 0 1 1542.8428 267.6445)" fill="#FFFFFF" font-family="'Roboto-Regular'" font-size="15px">u</text>
		<text transform="matrix(1 0 0 1 1551.1113 267.6445)" fill="#FFFFFF" font-family="'Roboto-Regular'" font-size="15px">m</text>
		<text transform="matrix(1 0 0 1 1564.2588 267.6445)" fill="#FFFFFF" font-family="'Roboto-Regular'" font-size="15px"> </text>
		<text transform="matrix(1 0 0 1 1567.9727 267.6445)" fill="#FFFFFF" font-family="'Roboto-Regular'" font-size="15px">r</text>
		<text transform="matrix(1 0 0 1 1573.0479 267.6445)" fill="#FFFFFF" font-family="'Roboto-Regular'" font-size="15px">e</text>
		<text transform="matrix(1 0 0 1 1580.9941 267.6445)" fill="#FFFFFF" font-family="'Roboto-Regular'" font-size="15px">s</text>
		<text transform="matrix(1 0 0 1 1588.7285 267.6445)" fill="#FFFFFF" font-family="'Roboto-Regular'" font-size="15px">e</text>
		<text transform="matrix(1 0 0 1 1596.6758 267.6445)" fill="#FFFFFF" font-family="'Roboto-Regular'" font-size="15px">r</text>
		<text transform="matrix(1 0 0 1 1601.8828 267.6445)" fill="#FFFFFF" font-family="'Roboto-Regular'" font-size="15px">v</text>
		<text transform="matrix(1 0 0 1 1609.1484 267.6445)" fill="#FFFFFF" font-family="'Roboto-Regular'" font-size="15px">e</text>
		<text transform="matrix(1 0 0 1 1617.0957 267.6445)" fill="#FFFFFF" font-family="'Roboto-Regular'" font-size="15px">.</text>
	</g>
</g>
<style>
#g-reserve-large-interaction-img rect, #g-reserve-large-interaction-img circle, #g-reserve-large-interaction-img path, #g-reserve-large-interaction-img line, #g-reserve-large-interaction-img polyline, #g-reserve-large-interaction-img polygon { vector-effect: non-scaling-stroke; }
</style>
</svg>

