<svg xmlns="http://www.w3.org/2000/svg" xmlns:xlink="http://www.w3.org/1999/xlink" id="exportSvg" width="1424" height="1508"><defs/><g><g id="__svelte-dw-svg" clip-path="url(#rect-mask-Y0PFuIrz4Wxbk98sV4nua)"><clipPath id="rect-mask-Y0PFuIrz4Wxbk98sV4nua"><rect x="0" y="0" width="1424" height="1508"/></clipPath><g id="chart-styles-svg datawrapper-cwABg-cadg66-svg svelte-1ebdbns-svg static-svg" clip-path="url(#rect-mask-zZPqmOM4192RdKptSWdQo)"><clipPath id="rect-mask-zZPqmOM4192RdKptSWdQo"><rect x="0" y="0" width="1424" height="1508"/></clipPath><g id="chart-svg"><g id="svg-main-svg" clip-path="url(#rect-mask-FFldsbMD5thQ1QcAHKBDX)"><clipPath id="rect-mask-FFldsbMD5thQ1QcAHKBDX"><rect x="0" y="0" width="1424" height="1475"/></clipPath><g id="group-svg" transform="translate(34.22656, 6)"><g id="y-grid-lines-svg grid-y-svg datawrapper-cwABg-1fn7900-svg"><line x1="0" x2="1323.7734375" y1="0" y2="0" transform="translate(0, 1393.87224)" style="fill: none; stroke-width: 1; stroke-linejoin: miter; stroke-linecap: butt; stroke: rgb(231, 231, 231);"/><line x1="0" x2="1323.7734375" y1="0" y2="0" transform="translate(0, 1338.74449)" style="fill: none; stroke-width: 1; stroke-linejoin: miter; stroke-linecap: butt; stroke: rgb(231, 231, 231);"/><line x1="0" x2="1323.7734375" y1="0" y2="0" transform="translate(0, 1283.61673)" style="fill: none; stroke-width: 1; stroke-linejoin: miter; stroke-linecap: butt; stroke: rgb(231, 231, 231);"/><line x1="0" x2="1323.7734375" y1="0" y2="0" transform="translate(0, 1228.48897)" style="fill: none; stroke-width: 1; stroke-linejoin: miter; stroke-linecap: butt; stroke: rgb(231, 231, 231);"/><line x1="0" x2="1323.7734375" y1="0" y2="0" transform="translate(0, 1173.36122)" style="fill: none; stroke-width: 1; stroke-linejoin: miter; stroke-linecap: butt; stroke: rgb(231, 231, 231);"/><line x1="0" x2="1323.7734375" y1="0" y2="0" transform="translate(0, 1118.23346)" style="fill: none; stroke-width: 1; stroke-linejoin: miter; stroke-linecap: butt; stroke: rgb(231, 231, 231);"/><line x1="0" x2="1323.7734375" y1="0" y2="0" transform="translate(0, 1063.10571)" style="fill: none; stroke-width: 1; stroke-linejoin: miter; stroke-linecap: butt; stroke: rgb(231, 231, 231);"/><line x1="0" x2="1323.7734375" y1="0" y2="0" transform="translate(0, 1007.97795)" style="fill: none; stroke-width: 1; stroke-linejoin: miter; stroke-linecap: butt; stroke: rgb(231, 231, 231);"/><line x1="0" x2="1323.7734375" y1="0" y2="0" transform="translate(0, 952.85019)" style="fill: none; stroke-width: 1; stroke-linejoin: miter; stroke-linecap: butt; stroke: rgb(231, 231, 231);"/><line x1="0" x2="1323.7734375" y1="0" y2="0" transform="translate(0, 897.72244)" style="fill: none; stroke-width: 1; stroke-linejoin: miter; stroke-linecap: butt; stroke: rgb(231, 231, 231);"/><line x1="0" x2="1323.7734375" y1="0" y2="0" transform="translate(0, 842.59468)" style="fill: none; stroke-width: 1; stroke-linejoin: miter; stroke-linecap: butt; stroke: rgb(231, 231, 231);"/><line x1="0" x2="1323.7734375" y1="0" y2="0" transform="translate(0, 787.46692)" style="fill: none; stroke-width: 1; stroke-linejoin: miter; stroke-linecap: butt; stroke: rgb(231, 231, 231);"/><line x1="0" x2="1323.7734375" y1="0" y2="0" transform="translate(0, 732.33917)" style="fill: none; stroke-width: 1; stroke-linejoin: miter; stroke-linecap: butt; stroke: rgb(231, 231, 231);"/><line x1="0" x2="1323.7734375" y1="0" y2="0" transform="translate(0, 677.21141)" style="fill: none; stroke-width: 1; stroke-linejoin: miter; stroke-linecap: butt; stroke: rgb(231, 231, 231);"/><line x1="0" x2="1323.7734375" y1="0" y2="0" transform="translate(0, 622.08365)" style="fill: none; stroke-width: 1; stroke-linejoin: miter; stroke-linecap: butt; stroke: rgb(231, 231, 231);"/><line x1="0" x2="1323.7734375" y1="0" y2="0" transform="translate(0, 566.9559)" style="fill: none; stroke-width: 1; stroke-linejoin: miter; stroke-linecap: butt; stroke: rgb(231, 231, 231);"/><line x1="0" x2="1323.7734375" y1="0" y2="0" transform="translate(0, 511.82814)" style="fill: none; stroke-width: 1; stroke-linejoin: miter; stroke-linecap: butt; stroke: rgb(231, 231, 231);"/><line x1="0" x2="1323.7734375" y1="0" y2="0" transform="translate(0, 456.70039)" style="fill: none; stroke-width: 1; stroke-linejoin: miter; stroke-linecap: butt; stroke: rgb(231, 231, 231);"/><line x1="0" x2="1323.7734375" y1="0" y2="0" transform="translate(0, 401.57263)" style="fill: none; stroke-width: 1; stroke-linejoin: miter; stroke-linecap: butt; stroke: rgb(231, 231, 231);"/><line x1="0" x2="1323.7734375" y1="0" y2="0" transform="translate(0, 346.44487)" style="fill: none; stroke-width: 1; stroke-linejoin: miter; stroke-linecap: butt; stroke: rgb(231, 231, 231);"/><line x1="0" x2="1323.7734375" y1="0" y2="0" transform="translate(0, 291.31712)" style="fill: none; stroke-width: 1; stroke-linejoin: miter; stroke-linecap: butt; stroke: rgb(231, 231, 231);"/><line x1="0" x2="1323.7734375" y1="0" y2="0" transform="translate(0, 236.18936)" style="fill: none; stroke-width: 1; stroke-linejoin: miter; stroke-linecap: butt; stroke: rgb(231, 231, 231);"/><line x1="0" x2="1323.7734375" y1="0" y2="0" transform="translate(0, 181.0616)" style="fill: none; stroke-width: 1; stroke-linejoin: miter; stroke-linecap: butt; stroke: rgb(231, 231, 231);"/><line x1="0" x2="1323.7734375" y1="0" y2="0" transform="translate(0, 125.93385)" style="fill: none; stroke-width: 1; stroke-linejoin: miter; stroke-linecap: butt; stroke: rgb(231, 231, 231);"/><line x1="0" x2="1323.7734375" y1="0" y2="0" transform="translate(0, 70.80609)" style="fill: none; stroke-width: 1; stroke-linejoin: miter; stroke-linecap: butt; stroke: rgb(231, 231, 231);"/><line x1="0" x2="1323.7734375" y1="0" y2="0" transform="translate(0, 15.67833)" style="fill: none; stroke-width: 1; stroke-linejoin: miter; stroke-linecap: butt; stroke: rgb(231, 231, 231);"/></g><g id="lines-svg"><g id="Argentina-svg"><path d="M9.851165387904887,1415.9233461673084L128.31456856254414,1415.9233461673084L128.31456856254414,1419.2310115505775L247.102529006155,1419.2310115505775L247.102529006155,1421.4361218060903L365.5659321807943,1421.4361218060903L365.5659321807943,1413.7182359117955L484.02933535543355,1413.7182359117955L484.02933535543355,1409.30801540077L602.4927385300728,1409.30801540077L602.4927385300728,1385.0518025901295L721.2806989736837,1385.0518025901295L721.2806989736837,1386.154357717886L839.744102148323,1386.154357717886L839.744102148323,1378.436471823591L958.2075053229621,1378.436471823591L958.2075053229621,1379.5390269513475L1076.6709084976014,1379.5390269513475L1076.6709084976014,1383.9492474623733L1195.4588689412124,1383.9492474623733L1195.4588689412124,1382.8466923346166L1313.9222721158515,1382.8466923346166L1313.9222721158515,1380.641582079104" stroke="rgb(125,235,255)" id="Argentina" style="fill: none; stroke-width: 3; stroke-linejoin: round; stroke-linecap: round; stroke: rgb(125, 235, 255);"/></g><g id="Others-svg"><path d="M9.851165387904887,1449L128.31456856254414,1449L128.31456856254414,1449L247.102529006155,1449L247.102529006155,1449L365.5659321807943,1449L365.5659321807943,1449L484.02933535543355,1449L484.02933535543355,1449L602.4927385300728,1449L602.4927385300728,1449L721.2806989736837,1449L721.2806989736837,1447.8974448722436L839.744102148323,1447.8974448722436L839.744102148323,1415.9233461673084L958.2075053229621,1415.9233461673084L958.2075053229621,1444.5897794889745L1076.6709084976014,1444.5897794889745L1076.6709084976014,1447.8974448722436L1195.4588689412124,1447.8974448722436L1195.4588689412124,1447.8974448722436L1313.9222721158515,1447.8974448722436L1313.9222721158515,1449" stroke="rgb(104,216,255)" id="Others" style="fill: none; stroke-width: 3; stroke-linejoin: round; stroke-linecap: round; stroke: rgb(104, 216, 255);"/></g><g id="Chile-svg"><path d="M9.851165387904887,1317.7959397969898L128.31456856254414,1317.7959397969898L128.31456856254414,1313.3857192859643L247.102529006155,1313.3857192859643L247.102529006155,1333.2317115855792L365.5659321807943,1333.2317115855792L365.5659321807943,1329.9240462023101L484.02933535543355,1329.9240462023101L484.02933535543355,1340.949597479874L602.4927385300728,1340.949597479874L602.4927385300728,1299.0525026251312L721.2806989736837,1299.0525026251312L721.2806989736837,1292.4371718585928L839.744102148323,1292.4371718585928L839.744102148323,1261.565628281414L958.2075053229621,1261.565628281414L958.2075053229621,1237.3094154707735L1076.6709084976014,1237.3094154707735L1076.6709084976014,1210.8480924046203L1195.4588689412124,1210.8480924046203L1195.4588689412124,1162.335666783339L1313.9222721158515,1162.335666783339L1313.9222721158515,1019.0035001750089" stroke="rgb(82,197,243)" id="Chile" style="fill: none; stroke-width: 3; stroke-linejoin: round; stroke-linecap: round; stroke: rgb(82, 197, 243);"/></g><g id="Zimbabwe-svg"><path d="M9.851165387904887,1443.487224361218L128.31456856254414,1443.487224361218L128.31456856254414,1436.8718935946797L247.102529006155,1436.8718935946797L247.102529006155,1437.9744487224361L365.5659321807943,1437.9744487224361L365.5659321807943,1439.0770038501926L484.02933535543355,1439.0770038501926L484.02933535543355,1439.0770038501926L602.4927385300728,1439.0770038501926L602.4927385300728,1437.9744487224361L721.2806989736837,1437.9744487224361L721.2806989736837,1440.1795589779488L839.744102148323,1440.1795589779488L839.744102148323,1431.3591179558978L958.2075053229621,1431.3591179558978L958.2075053229621,1435.7693384669233L1076.6709084976014,1435.7693384669233L1076.6709084976014,1444.5897794889745L1195.4588689412124,1444.5897794889745L1195.4588689412124,1435.7693384669233L1313.9222721158515,1435.7693384669233L1313.9222721158515,1440.1795589779488" stroke="rgb(58,179,224)" id="Zimbabwe" style="fill: none; stroke-width: 3; stroke-linejoin: round; stroke-linecap: round; stroke: rgb(58, 179, 224);"/></g><g id="Australia-svg"><path d="M9.851165387904887,1320.0010500525027L128.31456856254414,1320.0010500525027L128.31456856254414,1308.9754987749386L247.102529006155,1308.9754987749386L247.102529006155,1337.6419320966047L365.5659321807943,1337.6419320966047L365.5659321807943,1312.283164158208L484.02933535543355,1312.283164158208L484.02933535543355,1317.7959397969898L602.4927385300728,1317.7959397969898L602.4927385300728,1294.6422821141057L721.2806989736837,1294.6422821141057L721.2806989736837,1214.1557577878893L839.744102148323,1214.1557577878893L839.744102148323,820.543577178859L958.2075053229621,820.543577178859L958.2075053229621,952.8501925096255L1076.6709084976014,952.8501925096255L1076.6709084976014,1007.9779488974449L1195.4588689412124,1007.9779488974449L1195.4588689412124,838.1844592229611L1313.9222721158515,838.1844592229611L1313.9222721158515,776.4413720686035" stroke="rgb(24,161,205)" id="Australia" style="fill: none; stroke-width: 3; stroke-linejoin: round; stroke-linecap: round; stroke: rgb(24, 161, 205);"/></g><g id="Portugal-svg"><path d="M9.851165387904887,1442.3846692334616L128.31456856254414,1442.3846692334616L128.31456856254414,1445.692334616731L247.102529006155,1445.692334616731L247.102529006155,1445.692334616731L365.5659321807943,1445.692334616731L365.5659321807943,1445.692334616731L484.02933535543355,1445.692334616731L484.02933535543355,1445.692334616731L602.4927385300728,1445.692334616731L602.4927385300728,1444.5897794889745L721.2806989736837,1444.5897794889745L721.2806989736837,1440.1795589779488L839.744102148323,1440.1795589779488L839.744102148323,1435.7693384669233L958.2075053229621,1435.7693384669233L958.2075053229621,1439.0770038501926L1076.6709084976014,1439.0770038501926L1076.6709084976014,1445.692334616731L1195.4588689412124,1445.692334616731L1195.4588689412124,1439.0770038501926L1313.9222721158515,1439.0770038501926L1313.9222721158515,1442.3846692334616" stroke="rgb(0,143,187)" id="Portugal" style="fill: none; stroke-width: 3; stroke-linejoin: round; stroke-linecap: round; stroke: rgb(0, 143, 187);"/></g><g id="China-svg"><path d="M9.851165387904887,1403.7952397619881L128.31456856254414,1403.7952397619881L128.31456856254414,1399.3850192509624L247.102529006155,1399.3850192509624L247.102529006155,1397.1799089954498L365.5659321807943,1397.1799089954498L365.5659321807943,1423.641232061603L484.02933535543355,1423.641232061603L484.02933535543355,1426.9488974448723L602.4927385300728,1426.9488974448723L602.4927385300728,1423.641232061603L721.2806989736837,1423.641232061603L721.2806989736837,1374.0262513125656L839.744102148323,1374.0262513125656L839.744102148323,1370.7185859292965L958.2075053229621,1370.7185859292965L958.2075053229621,1329.9240462023101L1076.6709084976014,1329.9240462023101L1076.6709084976014,1302.3601680084005L1195.4588689412124,1302.3601680084005L1195.4588689412124,1294.6422821141057L1313.9222721158515,1294.6422821141057L1313.9222721158515,1239.5145257262861" stroke="rgb(0,126,168)" id="China" style="fill: none; stroke-width: 3; stroke-linejoin: round; stroke-linecap: round; stroke: rgb(0, 126, 168);"/></g><g id="total-svg"><path d="M9.851165387904887,1061.8818690934547L128.31456856254414,1061.8818690934547L128.31456856254414,1043.1274063703183L247.102529006155,1043.1274063703183L247.102529006155,1091.628806440322L365.5659321807943,1091.628806440322L365.5659321807943,1085.0024501225062L484.02933535543355,1085.0024501225062L484.02933535543355,1101.5297514875745L602.4927385300728,1101.5297514875745L602.4927385300728,1005.5964298214909L721.2806989736837,1005.5964298214909L721.2806989736837,865.5609030451523L839.744102148323,865.5609030451523L839.744102148323,377.1179558977949L958.2075053229621,377.1179558977949L958.2075053229621,468.61900595029755L1076.6709084976014,468.61900595029755L1076.6709084976014,501.6846342317116L1195.4588689412124,501.6846342317116L1195.4588689412124,258.00892544627237L1313.9222721158515,258.00892544627237L1313.9222721158515,0" stroke="rgb(0,109,151)" id="total" style="fill: none; stroke-width: 2; stroke-linejoin: round; stroke-linecap: round; stroke: rgb(0, 109, 151);"/></g><g id="Brazil-svg"><path d="M9.851165387904887,1445.692334616731L128.31456856254414,1445.692334616731L128.31456856254414,1446.7948897444871L247.102529006155,1446.7948897444871L247.102529006155,1444.5897794889745L365.5659321807943,1444.5897794889745L365.5659321807943,1446.7948897444871L484.02933535543355,1446.7948897444871L484.02933535543355,1447.8974448722436L602.4927385300728,1447.8974448722436L602.4927385300728,1446.7948897444871L721.2806989736837,1446.7948897444871L721.2806989736837,1445.692334616731L839.744102148323,1445.692334616731L839.744102148323,1437.9744487224361L958.2075053229621,1437.9744487224361L958.2075053229621,1424.7437871893594L1076.6709084976014,1424.7437871893594L1076.6709084976014,1433.5642282114106L1195.4588689412124,1433.5642282114106L1195.4588689412124,1432.4616730836542L1313.9222721158515,1432.4616730836542L1313.9222721158515,1424.7437871893594" stroke="rgb(0,93,133)" id="Brazil" style="fill: none; stroke-width: 3; stroke-linejoin: round; stroke-linecap: round; stroke: rgb(0, 93, 133);"/></g><g id="United-svg States-svg"><path d="M9.851165387904887,1437.9744487224361L128.31456856254414,1437.9744487224361L128.31456856254414,1437.9744487224361L247.102529006155,1437.9744487224361L247.102529006155,1439.0770038501926L365.5659321807943,1439.0770038501926L365.5659321807943,1439.0770038501926L484.02933535543355,1439.0770038501926L484.02933535543355,1439.0770038501926L602.4927385300728,1439.0770038501926L602.4927385300728,1439.0770038501926L721.2806989736837,1439.0770038501926L721.2806989736837,1439.0770038501926L839.744102148323,1439.0770038501926L839.744102148323,1439.0770038501926L958.2075053229621,1439.0770038501926L958.2075053229621,1439.0770038501926L1076.6709084976014,1439.0770038501926L1076.6709084976014,1439.0770038501926L1195.4588689412124,1439.0770038501926L1195.4588689412124,1439.0770038501926L1313.9222721158515,1439.0770038501926L1313.9222721158515,1442.3846692334616" stroke="rgb(0,77,116)" id="United States" style="fill: none; stroke-width: 3; stroke-linejoin: round; stroke-linecap: round; stroke: rgb(0, 77, 116);"/></g></g><g id="line-symbols-svg"/><g id="lbl-connect-lines-svg"><path d="M1313.9222721158515,1380.641582079104L1320.7734375,1378.442301657549" stroke="rgb(125,235,255)" id="Argentina" style="fill: none; stroke-width: 1; stroke-linejoin: miter; stroke-linecap: butt; stroke-dasharray: 2, 2; stroke: rgb(125, 235, 255);"/><path d="M1313.9222721158515,1440.1795589779488L1320.7734375,1407.1473276081135" stroke="rgb(58,179,224)" id="Zimbabwe" style="fill: none; stroke-width: 1; stroke-linejoin: miter; stroke-linecap: butt; stroke-dasharray: 2, 2; stroke: rgb(58, 179, 224);"/><path d="M1313.9222721158515,1442.3846692334616L1320.7734375,1440.5393853363973" stroke="rgb(0,143,187)" id="Portugal" style="fill: none; stroke-width: 1; stroke-linejoin: miter; stroke-linecap: butt; stroke-dasharray: 2, 2; stroke: rgb(0, 143, 187);"/><path d="M1313.9222721158515,1424.7437871893594L1320.7734375,1394.3869597818848" stroke="rgb(0,93,133)" id="Brazil" style="fill: none; stroke-width: 1; stroke-linejoin: miter; stroke-linecap: butt; stroke-dasharray: 2, 2; stroke: rgb(0, 93, 133);"/><path d="M1313.9222721158515,1442.3846692334616L1320.7734375,1424.057149734362" stroke="rgb(0,77,116)" id="United States" style="fill: none; stroke-width: 1; stroke-linejoin: miter; stroke-linecap: butt; stroke-dasharray: 2, 2; stroke: rgb(0, 77, 116);"/></g><g id="x-tick-labels-svg grid-x-svg date-axis-svg datawrapper-cwABg-63wp0p-svg" transform="translate(0, 1454)"><text transform="translate(9.85117, 12) translate(-13.47656, 0) translate(13.4765625, 0)" style="text-anchor: middle;"><tspan fill="rgb(116, 116, 116)" style="font-family: Roboto; font-weight: 400; font-stretch: 100%; font-size: 12px;" x="0" dominant-baseline="auto" y="0">2011</tspan></text><text transform="translate(128.31457, 12) translate(-13.60742, 0) translate(13.607421875, 0)" style="text-anchor: middle;"><tspan fill="rgb(116, 116, 116)" style="font-family: Roboto; font-weight: 400; font-stretch: 100%; font-size: 12px;" x="0" dominant-baseline="auto" y="0">2012</tspan></text><text transform="translate(247.10253, 12) translate(-13.47656, 0) translate(13.4765625, 0)" style="text-anchor: middle;"><tspan fill="rgb(116, 116, 116)" style="font-family: Roboto; font-weight: 400; font-stretch: 100%; font-size: 12px;" x="0" dominant-baseline="auto" y="0">2013</tspan></text><text transform="translate(365.56593, 12) translate(-13.60742, 0) translate(13.607421875, 0)" style="text-anchor: middle;"><tspan fill="rgb(116, 116, 116)" style="font-family: Roboto; font-weight: 400; font-stretch: 100%; font-size: 12px;" x="0" dominant-baseline="auto" y="0">2014</tspan></text><text transform="translate(484.02934, 12) translate(-13.60741, 0) translate(13.607406616210938, 0)" style="text-anchor: middle;"><tspan fill="rgb(116, 116, 116)" style="font-family: Roboto; font-weight: 400; font-stretch: 100%; font-size: 12px;" x="0" dominant-baseline="auto" y="0">2015</tspan></text><text transform="translate(602.49274, 12) translate(-13.60742, 0) translate(13.607421875, 0)" style="text-anchor: middle;"><tspan fill="rgb(116, 116, 116)" style="font-family: Roboto; font-weight: 400; font-stretch: 100%; font-size: 12px;" x="0" dominant-baseline="auto" y="0">2016</tspan></text><text transform="translate(721.2807, 12) translate(-13.60742, 0) translate(13.607421875, 0)" style="text-anchor: middle;"><tspan fill="rgb(116, 116, 116)" style="font-family: Roboto; font-weight: 400; font-stretch: 100%; font-size: 12px;" x="0" dominant-baseline="auto" y="0">2017</tspan></text><text transform="translate(839.7441, 12) translate(-13.60742, 0) translate(13.607421875, 0)" style="text-anchor: middle;"><tspan fill="rgb(116, 116, 116)" style="font-family: Roboto; font-weight: 400; font-stretch: 100%; font-size: 12px;" x="0" dominant-baseline="auto" y="0">2018</tspan></text><text transform="translate(958.20751, 12) translate(-13.47656, 0) translate(13.4765625, 0)" style="text-anchor: middle;"><tspan fill="rgb(116, 116, 116)" style="font-family: Roboto; font-weight: 400; font-stretch: 100%; font-size: 12px;" x="0" dominant-baseline="auto" y="0">2019</tspan></text><text transform="translate(1076.67091, 12) translate(-13.60742, 0) translate(13.607421875, 0)" style="text-anchor: middle;"><tspan fill="rgb(116, 116, 116)" style="font-family: Roboto; font-weight: 400; font-stretch: 100%; font-size: 12px;" x="0" dominant-baseline="auto" y="0">2020</tspan></text><text transform="translate(1195.45887, 12) translate(-13.47656, 0) translate(13.4765625, 0)" style="text-anchor: middle;"><tspan fill="rgb(116, 116, 116)" style="font-family: Roboto; font-weight: 400; font-stretch: 100%; font-size: 12px;" x="0" dominant-baseline="auto" y="0">2021</tspan></text><text transform="translate(1313.92227, 12) translate(-13.60742, 0) translate(13.607421875, 0)" style="text-anchor: middle;"><tspan fill="rgb(116, 116, 116)" style="font-family: Roboto; font-weight: 400; font-stretch: 100%; font-size: 12px;" x="0" dominant-baseline="auto" y="0">2022</tspan></text></g><g id="x-base-lines-svg grid-x-svg datawrapper-cwABg-1io9s9d-svg"/><g id="y-tick-labels-svg grid-y-svg number-axis-svg datawrapper-cwABg-yhj5g2-svg" transform="translate(-5, 0)"><text transform="translate(0, 1453) translate(-7, 0) translate(7, 0)" style="text-anchor: end;"><tspan fill="rgb(162, 162, 162)" style="font-family: Roboto; font-weight: 400; font-stretch: 100%; font-size: 12px;" x="0" dominant-baseline="auto" y="0">0</tspan></text><text transform="translate(0, 1397.87224) translate(-14.73828, 0) translate(14.73828125, 0)" style="text-anchor: end;"><tspan fill="rgb(162, 162, 162)" style="font-family: Roboto; font-weight: 400; font-stretch: 100%; font-size: 12px;" x="0" dominant-baseline="auto" y="0">5K</tspan></text><text transform="translate(0, 1342.74449) translate(-21.47656, 0) translate(21.4765625, 0)" style="text-anchor: end;"><tspan fill="rgb(162, 162, 162)" style="font-family: Roboto; font-weight: 400; font-stretch: 100%; font-size: 12px;" x="0" dominant-baseline="auto" y="0">10K</tspan></text><text transform="translate(0, 1287.61673) translate(-21.47656, 0) translate(21.4765625, 0)" style="text-anchor: end;"><tspan fill="rgb(162, 162, 162)" style="font-family: Roboto; font-weight: 400; font-stretch: 100%; font-size: 12px;" x="0" dominant-baseline="auto" y="0">15K</tspan></text><text transform="translate(0, 1232.48897) translate(-21.47656, 0) translate(21.4765625, 0)" style="text-anchor: end;"><tspan fill="rgb(162, 162, 162)" style="font-family: Roboto; font-weight: 400; font-stretch: 100%; font-size: 12px;" x="0" dominant-baseline="auto" y="0">20K</tspan></text><text transform="translate(0, 1177.36122) translate(-21.47656, 0) translate(21.4765625, 0)" style="text-anchor: end;"><tspan fill="rgb(162, 162, 162)" style="font-family: Roboto; font-weight: 400; font-stretch: 100%; font-size: 12px;" x="0" dominant-baseline="auto" y="0">25K</tspan></text><text transform="translate(0, 1122.23346) translate(-21.47656, 0) translate(21.4765625, 0)" style="text-anchor: end;"><tspan fill="rgb(162, 162, 162)" style="font-family: Roboto; font-weight: 400; font-stretch: 100%; font-size: 12px;" x="0" dominant-baseline="auto" y="0">30K</tspan></text><text transform="translate(0, 1067.10571) translate(-21.47656, 0) translate(21.4765625, 0)" style="text-anchor: end;"><tspan fill="rgb(162, 162, 162)" style="font-family: Roboto; font-weight: 400; font-stretch: 100%; font-size: 12px;" x="0" dominant-baseline="auto" y="0">35K</tspan></text><text transform="translate(0, 1011.97795) translate(-21.47656, 0) translate(21.4765625, 0)" style="text-anchor: end;"><tspan fill="rgb(162, 162, 162)" style="font-family: Roboto; font-weight: 400; font-stretch: 100%; font-size: 12px;" x="0" dominant-baseline="auto" y="0">40K</tspan></text><text transform="translate(0, 956.85019) translate(-21.47656, 0) translate(21.4765625, 0)" style="text-anchor: end;"><tspan fill="rgb(162, 162, 162)" style="font-family: Roboto; font-weight: 400; font-stretch: 100%; font-size: 12px;" x="0" dominant-baseline="auto" y="0">45K</tspan></text><text transform="translate(0, 901.72244) translate(-21.47656, 0) translate(21.4765625, 0)" style="text-anchor: end;"><tspan fill="rgb(162, 162, 162)" style="font-family: Roboto; font-weight: 400; font-stretch: 100%; font-size: 12px;" x="0" dominant-baseline="auto" y="0">50K</tspan></text><text transform="translate(0, 846.59468) translate(-21.47656, 0) translate(21.4765625, 0)" style="text-anchor: end;"><tspan fill="rgb(162, 162, 162)" style="font-family: Roboto; font-weight: 400; font-stretch: 100%; font-size: 12px;" x="0" dominant-baseline="auto" y="0">55K</tspan></text><text transform="translate(0, 791.46692) translate(-21.47656, 0) translate(21.4765625, 0)" style="text-anchor: end;"><tspan fill="rgb(162, 162, 162)" style="font-family: Roboto; font-weight: 400; font-stretch: 100%; font-size: 12px;" x="0" dominant-baseline="auto" y="0">60K</tspan></text><text transform="translate(0, 736.33917) translate(-21.47656, 0) translate(21.4765625, 0)" style="text-anchor: end;"><tspan fill="rgb(162, 162, 162)" style="font-family: Roboto; font-weight: 400; font-stretch: 100%; font-size: 12px;" x="0" dominant-baseline="auto" y="0">65K</tspan></text><text transform="translate(0, 681.21141) translate(-21.47656, 0) translate(21.4765625, 0)" style="text-anchor: end;"><tspan fill="rgb(162, 162, 162)" style="font-family: Roboto; font-weight: 400; font-stretch: 100%; font-size: 12px;" x="0" dominant-baseline="auto" y="0">70K</tspan></text><text transform="translate(0, 626.08365) translate(-21.47656, 0) translate(21.4765625, 0)" style="text-anchor: end;"><tspan fill="rgb(162, 162, 162)" style="font-family: Roboto; font-weight: 400; font-stretch: 100%; font-size: 12px;" x="0" dominant-baseline="auto" y="0">75K</tspan></text><text transform="translate(0, 570.9559) translate(-21.47656, 0) translate(21.4765625, 0)" style="text-anchor: end;"><tspan fill="rgb(162, 162, 162)" style="font-family: Roboto; font-weight: 400; font-stretch: 100%; font-size: 12px;" x="0" dominant-baseline="auto" y="0">80K</tspan></text><text transform="translate(0, 515.82814) translate(-21.47656, 0) translate(21.4765625, 0)" style="text-anchor: end;"><tspan fill="rgb(162, 162, 162)" style="font-family: Roboto; font-weight: 400; font-stretch: 100%; font-size: 12px;" x="0" dominant-baseline="auto" y="0">85K</tspan></text><text transform="translate(0, 460.70039) translate(-21.47656, 0) translate(21.4765625, 0)" style="text-anchor: end;"><tspan fill="rgb(162, 162, 162)" style="font-family: Roboto; font-weight: 400; font-stretch: 100%; font-size: 12px;" x="0" dominant-baseline="auto" y="0">90K</tspan></text><text transform="translate(0, 405.57263) translate(-21.47656, 0) translate(21.4765625, 0)" style="text-anchor: end;"><tspan fill="rgb(162, 162, 162)" style="font-family: Roboto; font-weight: 400; font-stretch: 100%; font-size: 12px;" x="0" dominant-baseline="auto" y="0">95K</tspan></text><text transform="translate(0, 350.44487) translate(-28.21484, 0) translate(28.21484375, 0)" style="text-anchor: end;"><tspan fill="rgb(162, 162, 162)" style="font-family: Roboto; font-weight: 400; font-stretch: 100%; font-size: 12px;" x="0" dominant-baseline="auto" y="0">100K</tspan></text><text transform="translate(0, 295.31712) translate(-28.21484, 0) translate(28.21484375, 0)" style="text-anchor: end;"><tspan fill="rgb(162, 162, 162)" style="font-family: Roboto; font-weight: 400; font-stretch: 100%; font-size: 12px;" x="0" dominant-baseline="auto" y="0">105K</tspan></text><text transform="translate(0, 240.18936) translate(-28.21484, 0) translate(28.21484375, 0)" style="text-anchor: end;"><tspan fill="rgb(162, 162, 162)" style="font-family: Roboto; font-weight: 400; font-stretch: 100%; font-size: 12px;" x="0" dominant-baseline="auto" y="0">110K</tspan></text><text transform="translate(0, 185.0616) translate(-28.21484, 0) translate(28.21484375, 0)" style="text-anchor: end;"><tspan fill="rgb(162, 162, 162)" style="font-family: Roboto; font-weight: 400; font-stretch: 100%; font-size: 12px;" x="0" dominant-baseline="auto" y="0">115K</tspan></text><text transform="translate(0, 129.93385) translate(-28.21484, 0) translate(28.21484375, 0)" style="text-anchor: end;"><tspan fill="rgb(162, 162, 162)" style="font-family: Roboto; font-weight: 400; font-stretch: 100%; font-size: 12px;" x="0" dominant-baseline="auto" y="0">120K</tspan></text><text transform="translate(0, 74.80609) translate(-28.21484, 0) translate(28.21484375, 0)" style="text-anchor: end;"><tspan fill="rgb(162, 162, 162)" style="font-family: Roboto; font-weight: 400; font-stretch: 100%; font-size: 12px;" x="0" dominant-baseline="auto" y="0">125K</tspan></text><text transform="translate(0, 19.67833) translate(-28.21484, 0) translate(28.21484375, 0)" style="text-anchor: end;"><tspan fill="rgb(162, 162, 162)" style="font-family: Roboto; font-weight: 400; font-stretch: 100%; font-size: 12px;" x="0" dominant-baseline="auto" y="0">130K</tspan></text></g><g id="y-base-lines-svg grid-y-svg datawrapper-cwABg-1io9s9d-svg"><line x1="1323.7734375" x2="0" y1="0" y2="0" transform="translate(0, 1449)" style="fill: none; stroke-width: 1; stroke-linejoin: miter; stroke-linecap: square; stroke: rgb(24, 24, 24);"/></g></g></g><text transform="translate(1357.984375, 1379.4375)" id="Argentina"><tspan fill="rgb(24,24,24)" x="0" y="12" style="font-family: Roboto; font-weight: 400; font-stretch: 100%; font-size: 12px;">Argentina</tspan></text><text transform="translate(1357.984375, 1450)" id="Others"><tspan fill="rgb(24,24,24)" x="0" y="12" style="font-family: Roboto; font-weight: 400; font-stretch: 100%; font-size: 12px;">Others</tspan></text><text transform="translate(1357.984375, 1020)" id="Chile"><tspan fill="rgb(24,24,24)" x="0" y="12" style="font-family: Roboto; font-weight: 400; font-stretch: 100%; font-size: 12px;">Chile</tspan></text><text transform="translate(1357.984375, 1408.140625)" id="Zimbabwe"><tspan fill="rgb(24,24,24)" x="0" y="12" style="font-family: Roboto; font-weight: 400; font-stretch: 100%; font-size: 12px;">Zimbabwe</tspan></text><text transform="translate(1357.984375, 777.4375)" id="Australia"><tspan fill="rgb(24,24,24)" x="0" y="12" style="font-family: Roboto; font-weight: 400; font-stretch: 100%; font-size: 12px;">Australia</tspan></text><text transform="translate(1357.984375, 1441.53125)" id="Portugal"><tspan fill="rgb(24,24,24)" x="0" y="12" style="font-family: Roboto; font-weight: 400; font-stretch: 100%; font-size: 12px;">Portugal</tspan></text><text transform="translate(1357.984375, 1240.5)" id="China"><tspan fill="rgb(24,24,24)" x="0" y="12" style="font-family: Roboto; font-weight: 400; font-stretch: 100%; font-size: 12px;">China</tspan></text><text transform="translate(1357.984375, 1)" id="total"><tspan fill="rgb(24,24,24)" x="0" y="12" style="font-family: Roboto; font-weight: 400; font-stretch: 100%; font-size: 12px;">total</tspan></text><text transform="translate(1357.984375, 1395.375)" id="Brazil"><tspan fill="rgb(24,24,24)" x="0" y="12" style="font-family: Roboto; font-weight: 400; font-stretch: 100%; font-size: 12px;">Brazil</tspan></text><text transform="translate(1357.984375, 1425.046875)" id="United States"><tspan fill="rgb(24,24,24)" x="0" y="12" style="font-family: Roboto; font-weight: 400; font-stretch: 100%; font-size: 12px;">United</tspan><tspan fill="rgb(24,24,24)" x="0" y="26" style="font-family: Roboto; font-weight: 400; font-stretch: 100%; font-size: 12px;">States</tspan></text><g id="tooltip-layer-svg" clip-path="url(#rect-mask-VDlQIzx7DRmKH-rZIZNXy)"><clipPath id="rect-mask-VDlQIzx7DRmKH-rZIZNXy"><rect x="0" y="0" width="1424" height="1475"/></clipPath><g id="group-svg" transform="translate(34.22656, 6)"/></g></g><g id="footer-svg"><text transform="translate(126.703125, 1495)"><tspan fill="rgb(136,136,136)" x="-126.703125" y="11" style="font-family: Roboto; font-weight: 400; font-stretch: 100%; font-size: 11px;">Created with</tspan><tspan fill="rgb(136,136,136)" dx="2.734375" style="font-family: Roboto; font-weight: 400; font-stretch: 100%; font-size: 11px;">Datawrapper</tspan></text></g></g></g></g></svg>