<svg xmlns="http://www.w3.org/2000/svg" width="805" height="600"><rect width="805" height="600" x="0" y="0" fill="#FFFFFF" id="backgorund"/><g id="viz"><clipPath id="serieClipPath"><rect x="-50" y="-10" width="805" height="600"/></clipPath><g transform="translate(0,0)"><g transform="translate(50,10)" clip-path="url(#serieClipPath)"><g id="axis"><g transform="translate(0,570)" fill="none" font-size="10" font-family="sans-serif" text-anchor="middle"><path class="domain" stroke="currentColor" d="M0,6V0H740V6"/><g class="tick" opacity="1" transform="translate(0,0)"><line stroke="currentColor" y2="6"/><text fill="currentColor" y="9" dy="0.71em">2,011</text></g><g class="tick" opacity="1" transform="translate(67.27272727272728,0)"><line stroke="currentColor" y2="6"/><text fill="currentColor" y="9" dy="0.71em">2,012</text></g><g class="tick" opacity="1" transform="translate(134.54545454545456,0)"><line stroke="currentColor" y2="6"/><text fill="currentColor" y="9" dy="0.71em">2,013</text></g><g class="tick" opacity="1" transform="translate(201.8181818181818,0)"><line stroke="currentColor" y2="6"/><text fill="currentColor" y="9" dy="0.71em">2,014</text></g><g class="tick" opacity="1" transform="translate(269.0909090909091,0)"><line stroke="currentColor" y2="6"/><text fill="currentColor" y="9" dy="0.71em">2,015</text></g><g class="tick" opacity="1" transform="translate(336.3636363636364,0)"><line stroke="currentColor" y2="6"/><text fill="currentColor" y="9" dy="0.71em">2,016</text></g><g class="tick" opacity="1" transform="translate(403.6363636363636,0)"><line stroke="currentColor" y2="6"/><text fill="currentColor" y="9" dy="0.71em">2,017</text></g><g class="tick" opacity="1" transform="translate(470.9090909090909,0)"><line stroke="currentColor" y2="6"/><text fill="currentColor" y="9" dy="0.71em">2,018</text></g><g class="tick" opacity="1" transform="translate(538.1818181818182,0)"><line stroke="currentColor" y2="6"/><text fill="currentColor" y="9" dy="0.71em">2,019</text></g><g class="tick" opacity="1" transform="translate(605.4545454545455,0)"><line stroke="currentColor" y2="6"/><text fill="currentColor" y="9" dy="0.71em">2,020</text></g><g class="tick" opacity="1" transform="translate(672.7272727272727,0)"><line stroke="currentColor" y2="6"/><text fill="currentColor" y="9" dy="0.71em">2,021</text></g><g class="tick" opacity="1" transform="translate(740,0)"><line stroke="currentColor" y2="6"/><text fill="currentColor" y="9" dy="0.71em">2,022</text></g><text x="740" dy="-5" text-anchor="end" style="font-family: Arial, sans-serif; font-size: 12px; fill: rgb(123, 123, 123); font-weight: bold;">year</text></g><g transform="translate(0,0)" fill="none" font-size="10" font-family="sans-serif" text-anchor="end"><path class="domain" stroke="currentColor" d="M0,570V0"/><g class="tick" opacity="1" transform="translate(0,570)"><line stroke="currentColor" x2="-6"/><text fill="currentColor" x="-9" dy="0.32em">0</text></g><g class="tick" opacity="1" transform="translate(0,526.1538461538462)"><line stroke="currentColor" x2="-6"/><text fill="currentColor" x="-9" dy="0.32em">10,000</text></g><g class="tick" opacity="1" transform="translate(0,482.3076923076923)"><line stroke="currentColor" x2="-6"/><text fill="currentColor" x="-9" dy="0.32em">20,000</text></g><g class="tick" opacity="1" transform="translate(0,438.4615384615384)"><line stroke="currentColor" x2="-6"/><text fill="currentColor" x="-9" dy="0.32em">30,000</text></g><g class="tick" opacity="1" transform="translate(0,394.6153846153846)"><line stroke="currentColor" x2="-6"/><text fill="currentColor" x="-9" dy="0.32em">40,000</text></g><g class="tick" opacity="1" transform="translate(0,350.7692307692308)"><line stroke="currentColor" x2="-6"/><text fill="currentColor" x="-9" dy="0.32em">50,000</text></g><g class="tick" opacity="1" transform="translate(0,306.9230769230769)"><line stroke="currentColor" x2="-6"/><text fill="currentColor" x="-9" dy="0.32em">60,000</text></g><g class="tick" opacity="1" transform="translate(0,263.0769230769231)"><line stroke="currentColor" x2="-6"/><text fill="currentColor" x="-9" dy="0.32em">70,000</text></g><g class="tick" opacity="1" transform="translate(0,219.2307692307692)"><line stroke="currentColor" x2="-6"/><text fill="currentColor" x="-9" dy="0.32em">80,000</text></g><g class="tick" opacity="1" transform="translate(0,175.3846153846154)"><line stroke="currentColor" x2="-6"/><text fill="currentColor" x="-9" dy="0.32em">90,000</text></g><g class="tick" opacity="1" transform="translate(0,131.53846153846152)"><line stroke="currentColor" x2="-6"/><text fill="currentColor" x="-9" dy="0.32em">100,000</text></g><g class="tick" opacity="1" transform="translate(0,87.6923076923077)"><line stroke="currentColor" x2="-6"/><text fill="currentColor" x="-9" dy="0.32em">110,000</text></g><g class="tick" opacity="1" transform="translate(0,43.84615384615382)"><line stroke="currentColor" x2="-6"/><text fill="currentColor" x="-9" dy="0.32em">120,000</text></g><g class="tick" opacity="1" transform="translate(0,0)"><line stroke="currentColor" x2="-6"/><text fill="currentColor" x="-9" dy="0.32em">130,000</text></g><text x="4" text-anchor="start" dominant-baseline="hanging" style="font-family: Arial, sans-serif; font-size: 12px; fill: rgb(123, 123, 123); font-weight: bold;">production_in_tons</text></g></g><g id="viz"><g id="Argentina"><path d="M0,556.8461538461538C33.63636363636364,556.8461538461538,33.63636363636364,558.1615384615385,67.27272727272728,558.1615384615385C100.90909090909092,558.1615384615385,100.90909090909092,559.0384615384615,134.54545454545456,559.0384615384615C168.1818181818182,559.0384615384615,168.1818181818182,555.9692307692308,201.8181818181818,555.9692307692308C235.45454545454547,555.9692307692308,235.45454545454547,554.2153846153847,269.0909090909091,554.2153846153847C302.72727272727275,554.2153846153847,302.72727272727275,544.5692307692308,336.3636363636364,544.5692307692308C370,544.5692307692308,370,545.0076923076923,403.6363636363636,545.0076923076923C437.27272727272725,545.0076923076923,437.27272727272725,541.9384615384615,470.9090909090909,541.9384615384615C504.54545454545456,541.9384615384615,504.54545454545456,542.376923076923,538.1818181818182,542.376923076923C571.8181818181819,542.376923076923,571.8181818181819,544.1307692307693,605.4545454545455,544.1307692307693C639.0909090909091,544.1307692307693,639.0909090909091,543.6923076923076,672.7272727272727,543.6923076923076C706.3636363636364,543.6923076923076,706.3636363636364,542.8153846153846,740,542.8153846153846" stroke="#1f77b4" fill="none"/><text font-family="sans-serif" font-size="10" class="labels" x="470.9090909090909" y="541.9384615384615" dx="0" dy="-4" text-anchor="middle">Argentina</text></g><g id="Australia "><path d="M0,518.7C33.63636363636364,518.7,33.63636363636364,514.3153846153846,67.27272727272728,514.3153846153846C100.90909090909092,514.3153846153846,100.90909090909092,525.7153846153846,134.54545454545456,525.7153846153846C168.1818181818182,525.7153846153846,168.1818181818182,515.6307692307693,201.8181818181818,515.6307692307693C235.45454545454547,515.6307692307693,235.45454545454547,517.8230769230769,269.0909090909091,517.8230769230769C302.72727272727275,517.8230769230769,302.72727272727275,508.6153846153846,336.3636363636364,508.6153846153846C370,508.6153846153846,370,476.6076923076923,403.6363636363636,476.6076923076923C437.27272727272725,476.6076923076923,437.27272727272725,320.0769230769231,470.9090909090909,320.0769230769231C504.54545454545456,320.0769230769231,504.54545454545456,372.6923076923077,538.1818181818182,372.6923076923077C571.8181818181819,372.6923076923077,571.8181818181819,394.6153846153846,605.4545454545455,394.6153846153846C639.0909090909091,394.6153846153846,639.0909090909091,327.0923076923077,672.7272727272727,327.0923076923077C706.3636363636364,327.0923076923077,706.3636363636364,302.53846153846155,740,302.53846153846155" stroke="#ff7f0e" fill="none"/><text font-family="sans-serif" font-size="10" class="labels" x="740" y="302.53846153846155" dx="0" dy="-4" text-anchor="middle">Australia </text></g><g id="Brazil"><path d="M0,568.6846153846153C33.63636363636364,568.6846153846153,33.63636363636364,569.123076923077,67.27272727272728,569.123076923077C100.90909090909092,569.123076923077,100.90909090909092,568.2461538461538,134.54545454545456,568.2461538461538C168.1818181818182,568.2461538461538,168.1818181818182,569.123076923077,201.8181818181818,569.123076923077C235.45454545454547,569.123076923077,235.45454545454547,569.5615384615385,269.0909090909091,569.5615384615385C302.72727272727275,569.5615384615385,302.72727272727275,569.123076923077,336.3636363636364,569.123076923077C370,569.123076923077,370,568.6846153846153,403.6363636363636,568.6846153846153C437.27272727272725,568.6846153846153,437.27272727272725,565.6153846153846,470.9090909090909,565.6153846153846C504.54545454545456,565.6153846153846,504.54545454545456,560.3538461538461,538.1818181818182,560.3538461538461C571.8181818181819,560.3538461538461,571.8181818181819,563.8615384615384,605.4545454545455,563.8615384615384C639.0909090909091,563.8615384615384,639.0909090909091,563.4230769230769,672.7272727272727,563.4230769230769C706.3636363636364,563.4230769230769,706.3636363636364,560.3538461538461,740,560.3538461538461" stroke="#2ca02c" fill="none"/><text font-family="sans-serif" font-size="10" class="labels" x="538.1818181818182" y="560.3538461538461" dx="0" dy="-4" text-anchor="middle">Brazil</text></g><g id="Chile"><path d="M0,517.8230769230769C33.63636363636364,517.8230769230769,33.63636363636364,516.0692307692308,67.27272727272728,516.0692307692308C100.90909090909092,516.0692307692308,100.90909090909092,523.9615384615385,134.54545454545456,523.9615384615385C168.1818181818182,523.9615384615385,168.1818181818182,522.6461538461539,201.8181818181818,522.6461538461539C235.45454545454547,522.6461538461539,235.45454545454547,527.0307692307692,269.0909090909091,527.0307692307692C302.72727272727275,527.0307692307692,302.72727272727275,510.3692307692308,336.3636363636364,510.3692307692308C370,510.3692307692308,370,507.73846153846154,403.6363636363636,507.73846153846154C437.27272727272725,507.73846153846154,437.27272727272725,495.46153846153845,470.9090909090909,495.46153846153845C504.54545454545456,495.46153846153845,504.54545454545456,485.81538461538463,538.1818181818182,485.81538461538463C571.8181818181819,485.81538461538463,571.8181818181819,475.2923076923077,605.4545454545455,475.2923076923077C639.0909090909091,475.2923076923077,639.0909090909091,456,672.7272727272727,456C706.3636363636364,456,706.3636363636364,399,740,399" stroke="#d62728" fill="none"/><text font-family="sans-serif" font-size="10" class="labels" x="740" y="399" dx="0" dy="-4" text-anchor="middle">Chile</text></g><g id="China"><path d="M0,552.0230769230769C33.63636363636364,552.0230769230769,33.63636363636364,550.2692307692308,67.27272727272728,550.2692307692308C100.90909090909092,550.2692307692308,100.90909090909092,549.3923076923077,134.54545454545456,549.3923076923077C168.1818181818182,549.3923076923077,168.1818181818182,559.9153846153846,201.8181818181818,559.9153846153846C235.45454545454547,559.9153846153846,235.45454545454547,561.2307692307693,269.0909090909091,561.2307692307693C302.72727272727275,561.2307692307693,302.72727272727275,559.9153846153846,336.3636363636364,559.9153846153846C370,559.9153846153846,370,540.1846153846154,403.6363636363636,540.1846153846154C437.27272727272725,540.1846153846154,437.27272727272725,538.8692307692307,470.9090909090909,538.8692307692307C504.54545454545456,538.8692307692307,504.54545454545456,522.6461538461539,538.1818181818182,522.6461538461539C571.8181818181819,522.6461538461539,571.8181818181819,511.68461538461537,605.4545454545455,511.68461538461537C639.0909090909091,511.68461538461537,639.0909090909091,508.6153846153846,672.7272727272727,508.6153846153846C706.3636363636364,508.6153846153846,706.3636363636364,486.6923076923077,740,486.6923076923077" stroke="#9467bd" fill="none"/><text font-family="sans-serif" font-size="10" class="labels" x="740" y="486.6923076923077" dx="0" dy="-4" text-anchor="middle">China</text></g><g id="Portugal"><path d="M0,567.3692307692307C33.63636363636364,567.3692307692307,33.63636363636364,568.6846153846153,67.27272727272728,568.6846153846153C100.90909090909092,568.6846153846153,100.90909090909092,568.6846153846153,134.54545454545456,568.6846153846153C168.1818181818182,568.6846153846153,168.1818181818182,568.6846153846153,201.8181818181818,568.6846153846153C235.45454545454547,568.6846153846153,235.45454545454547,568.6846153846153,269.0909090909091,568.6846153846153C302.72727272727275,568.6846153846153,302.72727272727275,568.2461538461538,336.3636363636364,568.2461538461538C370,568.2461538461538,370,566.4923076923077,403.6363636363636,566.4923076923077C437.27272727272725,566.4923076923077,437.27272727272725,564.7384615384615,470.9090909090909,564.7384615384615C504.54545454545456,564.7384615384615,504.54545454545456,566.0538461538462,538.1818181818182,566.0538461538462C571.8181818181819,566.0538461538462,571.8181818181819,568.6846153846153,605.4545454545455,568.6846153846153C639.0909090909091,568.6846153846153,639.0909090909091,566.0538461538462,672.7272727272727,566.0538461538462C706.3636363636364,566.0538461538462,706.3636363636364,567.3692307692307,740,567.3692307692307" stroke="#e377c2" fill="none"/><text font-family="sans-serif" font-size="10" class="labels" x="470.9090909090909" y="564.7384615384615" dx="0" dy="-4" text-anchor="middle">Portugal</text></g><g id="United States"><path d="M0,565.6153846153846C33.63636363636364,565.6153846153846,33.63636363636364,565.6153846153846,67.27272727272728,565.6153846153846C100.90909090909092,565.6153846153846,100.90909090909092,566.0538461538462,134.54545454545456,566.0538461538462C168.1818181818182,566.0538461538462,168.1818181818182,566.0538461538462,201.8181818181818,566.0538461538462C235.45454545454547,566.0538461538462,235.45454545454547,566.0538461538462,269.0909090909091,566.0538461538462C302.72727272727275,566.0538461538462,302.72727272727275,566.0538461538462,336.3636363636364,566.0538461538462C370,566.0538461538462,370,566.0538461538462,403.6363636363636,566.0538461538462C437.27272727272725,566.0538461538462,437.27272727272725,566.0538461538462,470.9090909090909,566.0538461538462C504.54545454545456,566.0538461538462,504.54545454545456,566.0538461538462,538.1818181818182,566.0538461538462C571.8181818181819,566.0538461538462,571.8181818181819,566.0538461538462,605.4545454545455,566.0538461538462C639.0909090909091,566.0538461538462,639.0909090909091,566.0538461538462,672.7272727272727,566.0538461538462C706.3636363636364,566.0538461538462,706.3636363636364,567.3692307692307,740,567.3692307692307" stroke="#bcbd22" fill="none"/><text font-family="sans-serif" font-size="10" class="labels" x="0" y="565.6153846153846" dx="0" dy="-4" text-anchor="middle">United States</text></g><g id="Zimbabwe"><path d="M0,567.8076923076923C33.63636363636364,567.8076923076923,33.63636363636364,565.1769230769231,67.27272727272728,565.1769230769231C100.90909090909092,565.1769230769231,100.90909090909092,565.6153846153846,134.54545454545456,565.6153846153846C168.1818181818182,565.6153846153846,168.1818181818182,566.0538461538462,201.8181818181818,566.0538461538462C235.45454545454547,566.0538461538462,235.45454545454547,566.0538461538462,269.0909090909091,566.0538461538462C302.72727272727275,566.0538461538462,302.72727272727275,565.6153846153846,336.3636363636364,565.6153846153846C370,565.6153846153846,370,566.4923076923077,403.6363636363636,566.4923076923077C437.27272727272725,566.4923076923077,437.27272727272725,562.9846153846154,470.9090909090909,562.9846153846154C504.54545454545456,562.9846153846154,504.54545454545456,564.7384615384615,538.1818181818182,564.7384615384615C571.8181818181819,564.7384615384615,571.8181818181819,568.2461538461538,605.4545454545455,568.2461538461538C639.0909090909091,568.2461538461538,639.0909090909091,564.7384615384615,672.7272727272727,564.7384615384615C706.3636363636364,564.7384615384615,706.3636363636364,566.4923076923077,740,566.4923076923077" stroke="#17becf" fill="none"/><text font-family="sans-serif" font-size="10" class="labels" x="470.9090909090909" y="562.9846153846154" dx="0" dy="-4" text-anchor="middle">Zimbabwe</text></g><g id="Others"><path d="M0,570C33.63636363636364,570,33.63636363636364,570,67.27272727272728,570C100.90909090909092,570,100.90909090909092,570,134.54545454545456,570C168.1818181818182,570,168.1818181818182,570,201.8181818181818,570C235.45454545454547,570,235.45454545454547,570,269.0909090909091,570C302.72727272727275,570,302.72727272727275,570,336.3636363636364,570C370,570,370,569.5615384615385,403.6363636363636,569.5615384615385C437.27272727272725,569.5615384615385,437.27272727272725,556.8461538461538,470.9090909090909,556.8461538461538C504.54545454545456,556.8461538461538,504.54545454545456,568.2461538461538,538.1818181818182,568.2461538461538C571.8181818181819,568.2461538461538,571.8181818181819,569.5615384615385,605.4545454545455,569.5615384615385C639.0909090909091,569.5615384615385,639.0909090909091,569.5615384615385,672.7272727272727,569.5615384615385C706.3636363636364,569.5615384615385,706.3636363636364,570,740,570" stroke="#8c564b" fill="none"/><text font-family="sans-serif" font-size="10" class="labels" x="470.9090909090909" y="556.8461538461538" dx="0" dy="-4" text-anchor="middle">Others</text></g><g id="Total"><path d="M0,424.86923076923074C33.63636363636364,424.86923076923074,33.63636363636364,417.41538461538465,67.27272727272728,417.41538461538465C100.90909090909092,417.41538461538465,100.90909090909092,436.7076923076923,134.54545454545456,436.7076923076923C168.1818181818182,436.7076923076923,168.1818181818182,434.07692307692304,201.8181818181818,434.07692307692304C235.45454545454547,434.07692307692304,235.45454545454547,440.6538461538462,269.0909090909091,440.6538461538462C302.72727272727275,440.6538461538462,302.72727272727275,402.5076923076923,336.3636363636364,402.5076923076923C370,402.5076923076923,370,346.8230769230769,403.6363636363636,346.8230769230769C437.27272727272725,346.8230769230769,437.27272727272725,152.58461538461538,470.9090909090909,152.58461538461538C504.54545454545456,152.58461538461538,504.54545454545456,188.9769230769231,538.1818181818182,188.9769230769231C571.8181818181819,188.9769230769231,571.8181818181819,202.13076923076926,605.4545454545455,202.13076923076926C639.0909090909091,202.13076923076926,639.0909090909091,105.23076923076924,672.7272727272727,105.23076923076924C706.3636363636364,105.23076923076924,706.3636363636364,2.630769230769209,740,2.630769230769209" stroke="#7f7f7f" fill="none"/><text font-family="sans-serif" font-size="10" class="labels" x="740" y="2.630769230769209" dx="0" dy="-4" text-anchor="middle">Total</text></g></g></g><text y="4" x="4" style="font-family: Arial, sans-serif; font-size: 12px; fill: black; font-weight: bold; dominant-baseline: hanging;"/></g><g id="grid"><rect x="0" y="0" width="805" height="600" fill="none" stroke="#ccc"/></g></g></svg>