<?xml version="1.0" encoding="utf-8"?>
<!-- Generator: Adobe Illustrator 27.2.0, SVG Export Plug-In . SVG Version: 6.00 Build 0)  -->
<svg version="1.2" baseProfile="tiny" id="Layer_1" xmlns="http://www.w3.org/2000/svg" xmlns:xlink="http://www.w3.org/1999/xlink"
	 x="0px" y="0px" viewBox="0 0 805 500" overflow="visible" xml:space="preserve">
<rect x="790" y="10" width="5" height="13.554"/>
<rect x="790" y="103.554" width="5" height="41.721"/>
<rect x="400" y="50" width="5" height="55.275"/>
<rect x="400" y="185.275" width="5" height="264.725"/>
<rect x="790" y="225.275" width="5" height="264.725"/>
<rect x="10" y="90" width="5" height="320"/>
<path fill="none" stroke="#2CA02C" stroke-width="264.7253" d="M15,277.637c192.5,0,192.5,40,385,40"/>
<path fill="none" stroke="#2CA02C" stroke-width="55.2747" d="M15,117.637c192.5,0,192.5-40,385-40"/>
<path fill="none" stroke="#FF7F0E" stroke-width="264.7253" d="M405,317.637c192.5,0,192.5,40,385,40"/>
<path fill="none" stroke="#1F77B4" stroke-width="41.7207" d="M405,84.414c192.5,0,192.5,40,385,40"/>
<path fill="none" stroke="#1F77B4" stroke-width="13.5539" d="M405,56.777c192.5,0,192.5-40,385-40"/>
<text transform="matrix(1 0 0 1 727.0889 16.258)" font-family="'Arial-BoldMT'" font-size="10px">not recycled</text>
<text transform="matrix(1 0 0 1 745.4141 123.8953)" font-family="'Arial-BoldMT'" font-size="10px">recycled</text>
<text transform="matrix(1 0 0 1 409 77.1183)" font-family="'Arial-BoldMT'" font-size="10px">end of life</text>
<text transform="matrix(1 0 0 1 409 317.1183)" font-family="'Arial-BoldMT'" font-size="10px">in the market</text>
<text transform="matrix(1 0 0 1 774.3301 357.1183)" font-family="'Arial-BoldMT'" font-size="10px">na</text>
<text transform="matrix(1 0 0 1 19 249.481)" font-family="'Arial-BoldMT'" font-size="10px">all batteries</text>
</svg>
