<?xml version="1.0" encoding="utf-8"?>
<!-- Generator: Adobe Illustrator 27.2.0, SVG Export Plug-In . SVG Version: 6.00 Build 0)  -->
<svg version="1.1" id="Layer_1" xmlns="http://www.w3.org/2000/svg" xmlns:xlink="http://www.w3.org/1999/xlink" x="0px" y="0px"
	 viewBox="0 0 720 504" style="enable-background:new 0 0 720 504;" xml:space="preserve">
<style type="text/css">
	.st0{fill:none;}
	.st1{opacity:0.8;fill:#A5DB36;enable-background:new    ;}
	.st2{opacity:0.8;fill:#2C738E;enable-background:new    ;}
	.st3{opacity:0.8;fill:#8BD646;enable-background:new    ;}
	.st4{opacity:0.8;fill:#5EC962;enable-background:new    ;}
	.st5{opacity:0.8;fill:#2C728E;enable-background:new    ;}
</style>
<rect x="90" y="60.5" class="st0" width="558" height="388.1"/>
<path class="st1" d="M90,448.6h284.6V60.5H90V448.6z"/>
<rect x="90" y="60.5" class="st0" width="558" height="388.1"/>
<path class="st2" d="M374.6,448.6H648V131.8H374.6V448.6z"/>
<rect x="90" y="60.5" class="st0" width="558" height="388.1"/>
<path class="st3" d="M374.6,131.8h121.5V60.5H374.6V131.8z"/>
<rect x="90" y="60.5" class="st0" width="558" height="388.1"/>
<path class="st4" d="M496.1,131.8h91.1V60.5h-91.1V131.8z"/>
<rect x="90" y="60.5" class="st0" width="558" height="388.1"/>
<path class="st5" d="M587.2,131.8H648V60.5h-60.8V131.8z"/>
<path id="DejaVuSans-41" d="M211.3,251l-1.3,3.6h2.7L211.3,251z M210.8,250h1.1l2.8,7.3h-1l-0.7-1.9h-3.3l-0.7,1.9h-1L210.8,250z"/>
<path id="DejaVuSans-72" d="M218.9,252.6c-0.1-0.1-0.2-0.1-0.3-0.1c-0.1,0-0.2,0-0.4,0c-0.5,0-0.9,0.2-1.2,0.5s-0.4,0.8-0.4,1.4v2.9
	h-0.9v-5.5h0.9v0.9c0.2-0.3,0.4-0.6,0.7-0.7c0.3-0.2,0.7-0.2,1.1-0.2c0.1,0,0.1,0,0.2,0c0.1,0,0.2,0,0.2,0L218.9,252.6z"/>
<path id="DejaVuSans-67" d="M223.2,254.5c0-0.7-0.1-1.2-0.4-1.5c-0.3-0.4-0.6-0.5-1.1-0.5c-0.5,0-0.9,0.2-1.1,0.5
	c-0.3,0.4-0.4,0.9-0.4,1.5c0,0.6,0.1,1.2,0.4,1.5s0.6,0.5,1.1,0.5c0.5,0,0.9-0.2,1.1-0.5C223.1,255.6,223.2,255.1,223.2,254.5z
	 M224.1,256.6c0,0.9-0.2,1.6-0.6,2.1c-0.4,0.5-1,0.7-1.9,0.7c-0.3,0-0.6,0-0.9-0.1s-0.6-0.1-0.8-0.2v-0.9c0.3,0.1,0.5,0.2,0.8,0.3
	c0.3,0.1,0.5,0.1,0.8,0.1c0.6,0,1-0.2,1.3-0.5c0.3-0.3,0.4-0.8,0.4-1.4v-0.4c-0.2,0.3-0.4,0.6-0.7,0.7c-0.3,0.2-0.6,0.2-1,0.2
	c-0.7,0-1.2-0.3-1.6-0.8c-0.4-0.5-0.6-1.2-0.6-2c0-0.8,0.2-1.5,0.6-2c0.4-0.5,1-0.8,1.6-0.8c0.4,0,0.8,0.1,1,0.2
	c0.3,0.2,0.5,0.4,0.7,0.7v-0.8h0.9V256.6z"/>
<path id="DejaVuSans-65" d="M230.6,254.3v0.4h-4.1c0,0.6,0.2,1.1,0.6,1.4c0.3,0.3,0.8,0.5,1.4,0.5c0.3,0,0.7,0,1-0.1
	c0.3-0.1,0.6-0.2,1-0.4v0.8c-0.3,0.1-0.7,0.2-1,0.3c-0.3,0.1-0.7,0.1-1,0.1c-0.9,0-1.6-0.3-2.1-0.8c-0.5-0.5-0.8-1.2-0.8-2.1
	c0-0.9,0.2-1.6,0.7-2.1c0.5-0.5,1.1-0.8,2-0.8c0.7,0,1.3,0.2,1.7,0.7C230.4,252.9,230.6,253.5,230.6,254.3z M229.7,254.1
	c0-0.5-0.1-0.9-0.4-1.2c-0.3-0.3-0.6-0.4-1.1-0.4c-0.5,0-0.9,0.1-1.2,0.4s-0.5,0.7-0.5,1.2L229.7,254.1z"/>
<path id="DejaVuSans-6e" d="M236.7,254v3.3h-0.9V254c0-0.5-0.1-0.9-0.3-1.2c-0.2-0.3-0.5-0.4-0.9-0.4c-0.5,0-0.9,0.2-1.1,0.5
	c-0.3,0.3-0.4,0.7-0.4,1.3v3.1h-0.9v-5.5h0.9v0.9c0.2-0.3,0.5-0.6,0.8-0.7c0.3-0.2,0.6-0.2,1-0.2c0.6,0,1.1,0.2,1.4,0.6
	C236.5,252.7,236.7,253.2,236.7,254z"/>
<path id="DejaVuSans-74" d="M239.3,250.3v1.6h1.9v0.7h-1.9v3c0,0.4,0.1,0.7,0.2,0.9c0.1,0.1,0.4,0.2,0.7,0.2h0.9v0.8h-0.9
	c-0.7,0-1.2-0.1-1.4-0.4c-0.3-0.3-0.4-0.7-0.4-1.4v-3h-0.7v-0.7h0.7v-1.6H239.3z"/>
<path id="DejaVuSans-69" d="M242.4,251.8h0.9v5.5h-0.9V251.8z M242.4,249.7h0.9v1.1h-0.9V249.7z"/>
<path id="DejaVuSans-6e_00000085241515199437706400000010316332562504457150_" d="M249.7,254v3.3h-0.9V254c0-0.5-0.1-0.9-0.3-1.2
	c-0.2-0.3-0.5-0.4-0.9-0.4c-0.5,0-0.9,0.2-1.1,0.5c-0.3,0.3-0.4,0.7-0.4,1.3v3.1h-0.9v-5.5h0.9v0.9c0.2-0.3,0.5-0.6,0.8-0.7
	c0.3-0.2,0.6-0.2,1-0.2c0.6,0,1.1,0.2,1.4,0.6C249.5,252.7,249.7,253.2,249.7,254z"/>
<path id="DejaVuSans-61" d="M254,254.5c-0.7,0-1.2,0.1-1.5,0.2c-0.3,0.2-0.4,0.4-0.4,0.9c0,0.3,0.1,0.6,0.3,0.8
	c0.2,0.2,0.5,0.3,0.9,0.3c0.5,0,0.9-0.2,1.2-0.5s0.5-0.8,0.5-1.4v-0.2H254z M255.8,254.2v3.1h-0.9v-0.8c-0.2,0.3-0.5,0.6-0.8,0.7
	c-0.3,0.2-0.7,0.2-1.1,0.2c-0.6,0-1-0.2-1.3-0.5c-0.3-0.3-0.5-0.7-0.5-1.3c0-0.6,0.2-1.1,0.6-1.4c0.4-0.3,1-0.5,1.8-0.5h1.3v-0.1
	c0-0.4-0.1-0.7-0.4-1c-0.3-0.2-0.7-0.3-1.1-0.3c-0.3,0-0.6,0-0.9,0.1c-0.3,0.1-0.6,0.2-0.9,0.3v-0.8c0.3-0.1,0.6-0.2,1-0.3
	c0.3-0.1,0.6-0.1,0.9-0.1c0.8,0,1.4,0.2,1.8,0.6C255.6,252.7,255.8,253.3,255.8,254.2z"/>
<path id="DejaVuSans-43" d="M505.2,286.2v1c-0.3-0.3-0.7-0.5-1.1-0.7c-0.4-0.2-0.8-0.2-1.2-0.2c-0.8,0-1.5,0.3-1.9,0.8
	c-0.4,0.5-0.7,1.2-0.7,2.2c0,1,0.2,1.7,0.7,2.2c0.4,0.5,1.1,0.8,1.9,0.8c0.4,0,0.8-0.1,1.2-0.2c0.4-0.2,0.7-0.4,1.1-0.7v1
	c-0.3,0.2-0.7,0.4-1.1,0.5c-0.4,0.1-0.8,0.2-1.2,0.2c-1.1,0-2-0.3-2.6-1c-0.6-0.7-1-1.6-1-2.8c0-1.2,0.3-2.1,1-2.8
	c0.6-0.7,1.5-1,2.6-1c0.4,0,0.8,0.1,1.2,0.2C504.5,285.8,504.9,286,505.2,286.2z"/>
<path id="DejaVuSans-68" d="M511.2,289.6v3.3h-0.9v-3.3c0-0.5-0.1-0.9-0.3-1.2c-0.2-0.3-0.5-0.4-0.9-0.4c-0.5,0-0.9,0.2-1.1,0.5
	c-0.3,0.3-0.4,0.7-0.4,1.3v3.1h-0.9v-7.6h0.9v3c0.2-0.3,0.5-0.6,0.8-0.7c0.3-0.2,0.6-0.2,1-0.2c0.6,0,1.1,0.2,1.4,0.6
	C511.1,288.3,511.2,288.9,511.2,289.6z"/>
<path id="DejaVuSans-69_00000103266239816410844490000000985591882857341348_" d="M513,287.5h0.9v5.5H513V287.5z M513,285.3h0.9v1.1
	H513V285.3z"/>
<path id="DejaVuSans-6c" d="M515.8,285.3h0.9v7.6h-0.9V285.3z"/>
<path id="DejaVuSans-65_00000135656849657274598590000015642351570620403902_" d="M523.3,290v0.4h-4.1c0,0.6,0.2,1.1,0.6,1.4
	c0.3,0.3,0.8,0.5,1.4,0.5c0.3,0,0.7,0,1-0.1c0.3-0.1,0.6-0.2,1-0.4v0.8c-0.3,0.1-0.7,0.2-1,0.3c-0.3,0.1-0.7,0.1-1,0.1
	c-0.9,0-1.6-0.3-2.1-0.8c-0.5-0.5-0.8-1.2-0.8-2.1c0-0.9,0.2-1.6,0.7-2.1c0.5-0.5,1.1-0.8,2-0.8c0.7,0,1.3,0.2,1.7,0.7
	C523.1,288.5,523.3,289.1,523.3,290z M522.4,289.7c0-0.5-0.1-0.9-0.4-1.2c-0.3-0.3-0.6-0.4-1.1-0.4c-0.5,0-0.9,0.1-1.2,0.4
	s-0.5,0.7-0.5,1.2L522.4,289.7z"/>
<path id="DejaVuSans-43_00000048503591839805121830000004510311078565075891_" d="M427.5,92.2v1c-0.3-0.3-0.7-0.5-1.1-0.7
	c-0.4-0.2-0.8-0.2-1.2-0.2c-0.8,0-1.5,0.3-1.9,0.8c-0.4,0.5-0.7,1.2-0.7,2.2c0,1,0.2,1.7,0.7,2.2c0.4,0.5,1.1,0.8,1.9,0.8
	c0.4,0,0.8-0.1,1.2-0.2c0.4-0.2,0.7-0.4,1.1-0.7v1c-0.3,0.2-0.7,0.4-1.1,0.5c-0.4,0.1-0.8,0.2-1.2,0.2c-1.1,0-2-0.3-2.6-1
	c-0.6-0.7-1-1.6-1-2.8c0-1.2,0.3-2.1,1-2.8c0.6-0.7,1.5-1,2.6-1c0.4,0,0.8,0.1,1.2,0.2C426.8,91.7,427.2,91.9,427.5,92.2z"/>
<path id="DejaVuSans-68_00000103958892953994635740000005505950686348885939_" d="M433.5,95.6v3.3h-0.9v-3.3c0-0.5-0.1-0.9-0.3-1.2
	c-0.2-0.3-0.5-0.4-0.9-0.4c-0.5,0-0.9,0.2-1.1,0.5c-0.3,0.3-0.4,0.7-0.4,1.3v3.1h-0.9v-7.6h0.9v3c0.2-0.3,0.5-0.6,0.8-0.7
	c0.3-0.2,0.6-0.2,1-0.2c0.6,0,1.1,0.2,1.4,0.6C433.4,94.3,433.5,94.8,433.5,95.6z"/>
<path id="DejaVuSans-69_00000114766782643353530760000011379943083871748786_" d="M435.3,93.4h0.9v5.5h-0.9V93.4z M435.3,91.3h0.9
	v1.1h-0.9V91.3z"/>
<path id="DejaVuSans-6e_00000034805625614296708080000000962436447741136020_" d="M442.6,95.6v3.3h-0.9v-3.3c0-0.5-0.1-0.9-0.3-1.2
	c-0.2-0.3-0.5-0.4-0.9-0.4c-0.5,0-0.9,0.2-1.1,0.5c-0.3,0.3-0.4,0.7-0.4,1.3v3.1h-0.9v-5.5h0.9v0.8c0.2-0.3,0.5-0.6,0.8-0.7
	c0.3-0.2,0.6-0.2,1-0.2c0.6,0,1.1,0.2,1.4,0.6C442.5,94.3,442.6,94.8,442.6,95.6z"/>
<path id="DejaVuSans-61_00000142860744657577522390000010605006732365495946_" d="M446.9,96.1c-0.7,0-1.2,0.1-1.5,0.2
	c-0.3,0.2-0.4,0.4-0.4,0.8c0,0.3,0.1,0.6,0.3,0.8c0.2,0.2,0.5,0.3,0.9,0.3c0.5,0,0.9-0.2,1.2-0.5c0.3-0.4,0.5-0.8,0.5-1.4v-0.2
	H446.9z M448.7,95.8v3.1h-0.9V98c-0.2,0.3-0.5,0.6-0.8,0.7s-0.7,0.2-1.1,0.2c-0.6,0-1-0.2-1.3-0.5c-0.3-0.3-0.5-0.7-0.5-1.3
	c0-0.6,0.2-1.1,0.6-1.4c0.4-0.3,1-0.5,1.8-0.5h1.3v-0.1c0-0.4-0.1-0.7-0.4-1s-0.7-0.3-1.1-0.3c-0.3,0-0.6,0-0.9,0.1
	c-0.3,0.1-0.6,0.2-0.9,0.3v-0.8c0.3-0.1,0.6-0.2,1-0.3c0.3-0.1,0.6-0.1,0.9-0.1c0.8,0,1.4,0.2,1.8,0.6
	C448.5,94.3,448.7,94.9,448.7,95.8z"/>
<path id="DejaVuSans-52" d="M530,95.5c0.2,0.1,0.4,0.2,0.6,0.5c0.2,0.2,0.4,0.6,0.6,1l1,2h-1.1l-0.9-1.9c-0.2-0.5-0.5-0.8-0.7-1
	c-0.2-0.2-0.5-0.2-0.9-0.2h-1.1v3.1h-1v-7.3h2.2c0.8,0,1.5,0.2,1.9,0.5c0.4,0.3,0.6,0.9,0.6,1.6c0,0.5-0.1,0.8-0.3,1.1
	C530.7,95.1,530.4,95.3,530,95.5z M527.6,92.4V95h1.2c0.5,0,0.8-0.1,1.1-0.3c0.2-0.2,0.4-0.5,0.4-1c0-0.4-0.1-0.7-0.4-1
	c-0.2-0.2-0.6-0.3-1.1-0.3H527.6z"/>
<path id="DejaVuSans-75" d="M532.9,96.7v-3.3h0.9v3.3c0,0.5,0.1,0.9,0.3,1.2c0.2,0.3,0.5,0.4,0.9,0.4c0.5,0,0.9-0.2,1.1-0.5
	c0.3-0.3,0.4-0.7,0.4-1.3v-3.1h0.9v5.5h-0.9V98c-0.2,0.3-0.5,0.6-0.8,0.7c-0.3,0.2-0.6,0.2-1,0.2c-0.6,0-1.1-0.2-1.4-0.6
	C533.1,98,532.9,97.5,532.9,96.7z M535.2,93.3L535.2,93.3z"/>
<path id="DejaVuSans-73" d="M542.9,93.6v0.9c-0.3-0.1-0.5-0.2-0.8-0.3c-0.3-0.1-0.6-0.1-0.8-0.1c-0.4,0-0.8,0.1-1,0.2
	c-0.2,0.1-0.3,0.3-0.3,0.6c0,0.2,0.1,0.4,0.2,0.5s0.5,0.2,1,0.3l0.3,0.1c0.6,0.1,1.1,0.3,1.4,0.6c0.3,0.2,0.4,0.6,0.4,1
	c0,0.5-0.2,0.9-0.6,1.2c-0.4,0.3-1,0.4-1.7,0.4c-0.3,0-0.6,0-0.9-0.1c-0.3-0.1-0.7-0.1-1-0.3v-0.9c0.3,0.2,0.7,0.3,1,0.4
	c0.3,0.1,0.6,0.1,1,0.1c0.4,0,0.7-0.1,1-0.2c0.2-0.1,0.3-0.3,0.3-0.6c0-0.2-0.1-0.4-0.2-0.6c-0.2-0.1-0.5-0.3-1.1-0.4l-0.3-0.1
	c-0.6-0.1-1-0.3-1.2-0.5c-0.2-0.2-0.4-0.6-0.4-1c0-0.5,0.2-0.9,0.5-1.2c0.4-0.3,0.9-0.4,1.6-0.4c0.3,0,0.6,0,0.9,0.1
	C542.3,93.4,542.6,93.5,542.9,93.6z"/>
<path id="DejaVuSans-73_00000178893523581821286490000004329691044095475645_" d="M548.1,93.6v0.9c-0.3-0.1-0.5-0.2-0.8-0.3
	c-0.3-0.1-0.6-0.1-0.8-0.1c-0.4,0-0.8,0.1-1,0.2c-0.2,0.1-0.3,0.3-0.3,0.6c0,0.2,0.1,0.4,0.2,0.5s0.5,0.2,1,0.3l0.3,0.1
	c0.6,0.1,1.1,0.3,1.4,0.6c0.3,0.2,0.4,0.6,0.4,1c0,0.5-0.2,0.9-0.6,1.2c-0.4,0.3-1,0.4-1.7,0.4c-0.3,0-0.6,0-0.9-0.1
	c-0.3-0.1-0.7-0.1-1-0.3v-0.9c0.3,0.2,0.7,0.3,1,0.4c0.3,0.1,0.6,0.1,1,0.1c0.4,0,0.7-0.1,1-0.2c0.2-0.1,0.3-0.3,0.3-0.6
	c0-0.2-0.1-0.4-0.2-0.6c-0.2-0.1-0.5-0.3-1.1-0.4l-0.3-0.1c-0.6-0.1-1-0.3-1.2-0.5c-0.2-0.2-0.4-0.6-0.4-1c0-0.5,0.2-0.9,0.5-1.2
	c0.4-0.3,0.9-0.4,1.6-0.4c0.3,0,0.6,0,0.9,0.1C547.5,93.4,547.8,93.5,548.1,93.6z"/>
<path id="DejaVuSans-69_00000004525108506406042610000006556014688168203675_" d="M549.8,93.4h0.9v5.5h-0.9V93.4z M549.8,91.3h0.9
	v1.1h-0.9V91.3z"/>
<path id="DejaVuSans-61_00000008868871393010720840000003431196504725454259_" d="M555.1,96.1c-0.7,0-1.2,0.1-1.5,0.2
	s-0.4,0.4-0.4,0.8c0,0.3,0.1,0.6,0.3,0.8c0.2,0.2,0.5,0.3,0.9,0.3c0.5,0,0.9-0.2,1.2-0.5c0.3-0.4,0.5-0.8,0.5-1.4v-0.2H555.1z
	 M556.8,95.8v3.1h-0.9V98c-0.2,0.3-0.5,0.6-0.8,0.7c-0.3,0.2-0.7,0.2-1.1,0.2c-0.6,0-1-0.2-1.3-0.5c-0.3-0.3-0.5-0.7-0.5-1.3
	c0-0.6,0.2-1.1,0.6-1.4c0.4-0.3,1-0.5,1.8-0.5h1.3v-0.1c0-0.4-0.1-0.7-0.4-1c-0.3-0.2-0.7-0.3-1.1-0.3c-0.3,0-0.6,0-0.9,0.1
	c-0.3,0.1-0.6,0.2-0.9,0.3v-0.8c0.3-0.1,0.6-0.2,1-0.3c0.3-0.1,0.6-0.1,0.9-0.1c0.8,0,1.4,0.2,1.8,0.6
	C556.6,94.3,556.8,94.9,556.8,95.8z"/>
<path id="DejaVuSans-4f" d="M607.4,92.3c-0.7,0-1.3,0.3-1.7,0.8c-0.4,0.5-0.6,1.3-0.6,2.2c0,0.9,0.2,1.6,0.6,2.2
	c0.4,0.5,1,0.8,1.7,0.8c0.7,0,1.3-0.3,1.7-0.8c0.4-0.5,0.6-1.3,0.6-2.2c0-0.9-0.2-1.6-0.6-2.2C608.6,92.5,608.1,92.3,607.4,92.3z
	 M607.4,91.5c1,0,1.8,0.3,2.5,1c0.6,0.7,0.9,1.6,0.9,2.8c0,1.1-0.3,2.1-0.9,2.8c-0.6,0.7-1.4,1-2.5,1c-1,0-1.8-0.3-2.5-1
	c-0.6-0.7-0.9-1.6-0.9-2.8c0-1.2,0.3-2.1,0.9-2.8C605.5,91.8,606.3,91.5,607.4,91.5z"/>
<path id="DejaVuSans-74_00000121274984892429770720000011248336795607003808_" d="M613.1,91.9v1.6h1.9v0.7h-1.9v3
	c0,0.4,0.1,0.7,0.2,0.9c0.1,0.1,0.4,0.2,0.7,0.2h0.9v0.8h-0.9c-0.7,0-1.2-0.1-1.4-0.4c-0.3-0.3-0.4-0.7-0.4-1.4v-3h-0.7v-0.7h0.7
	v-1.6H613.1z"/>
<path id="DejaVuSans-68_00000015346135610798332920000007067494026352653212_" d="M620.7,95.6v3.3h-0.9v-3.3c0-0.5-0.1-0.9-0.3-1.2
	c-0.2-0.3-0.5-0.4-0.9-0.4c-0.5,0-0.9,0.2-1.1,0.5c-0.3,0.3-0.4,0.7-0.4,1.3v3.1h-0.9v-7.6h0.9v3c0.2-0.3,0.5-0.6,0.8-0.7
	c0.3-0.2,0.6-0.2,1-0.2c0.6,0,1.1,0.2,1.4,0.6C620.5,94.3,620.7,94.8,620.7,95.6z"/>
<path id="DejaVuSans-65_00000017512737739419305040000001425372731137161900_" d="M627.2,95.9v0.4H623c0,0.6,0.2,1.1,0.6,1.4
	c0.3,0.3,0.8,0.5,1.4,0.5c0.3,0,0.7,0,1-0.1c0.3-0.1,0.6-0.2,1-0.4v0.9c-0.3,0.1-0.7,0.2-1,0.3c-0.3,0.1-0.7,0.1-1,0.1
	c-0.9,0-1.6-0.3-2.1-0.8c-0.5-0.5-0.8-1.2-0.8-2.1c0-0.9,0.2-1.6,0.7-2.1c0.5-0.5,1.1-0.8,2-0.8c0.7,0,1.3,0.2,1.7,0.7
	C627,94.5,627.2,95.1,627.2,95.9z M626.3,95.7c0-0.5-0.1-0.9-0.4-1.2c-0.3-0.3-0.6-0.4-1.1-0.4c-0.5,0-0.9,0.1-1.2,0.4
	s-0.5,0.7-0.5,1.2L626.3,95.7z"/>
<path id="DejaVuSans-72_00000098187537887525247930000010241136717942971327_" d="M631.8,94.2c-0.1-0.1-0.2-0.1-0.3-0.1
	c-0.1,0-0.2,0-0.4,0c-0.5,0-0.9,0.2-1.2,0.5s-0.4,0.8-0.4,1.4v2.9h-0.9v-5.5h0.9v0.8c0.2-0.3,0.4-0.6,0.7-0.7
	c0.3-0.2,0.7-0.2,1.1-0.2c0.1,0,0.1,0,0.2,0c0.1,0,0.2,0,0.2,0L631.8,94.2z"/>
</svg>
